<svg width="454" height="61" viewBox="0 0 454 61" fill="none" xmlns="http://www.w3.org/2000/svg">
<g clip-path="url(#clip0_8_166)">
<path fill-rule="evenodd" clip-rule="evenodd" d="M0.5 49.5L3.4 50C4.90529 49.962 6.39507 49.6859 7.814 49.182C12.3767 47.6733 18.3053 44.0793 25.6 38.4V38.3L20.2 38.5C20.0944 38.5045 19.9887 38.5069 19.883 38.507C18.4163 38.507 17.1387 38.0713 16.05 37.2C14.8833 36.2667 14.3 35.1333 14.3 33.8L14.5 33.6C14.4999 33.5868 14.5016 33.5737 14.505 33.561C14.5137 33.531 14.533 33.512 14.563 33.504C14.5751 33.5011 14.5875 33.4998 14.6 33.5L14.9 33.7C15.023 33.7984 15.1581 33.8807 15.302 33.945C15.778 34.167 16.5107 34.352 17.5 34.5C18.6667 34.6753 20.2673 34.7483 22.302 34.719C22.6014 34.7146 22.9007 34.7082 23.2 34.7L26.7 34.6H30C32.0153 32.9873 34.317 30.9537 36.905 28.499C38.2536 27.2168 39.5854 25.917 40.9 24.6C42.9 22.5333 44.6833 20.6333 46.25 18.9C46.7571 18.3403 47.2545 17.7718 47.742 17.195C48.1767 16.679 48.574 16.188 48.934 15.722C49.2685 15.2906 49.5907 14.8498 49.9 14.4L53 9.9C53.246 9.9 53.3787 10.2117 53.398 10.835C53.3995 10.89 53.4002 10.945 53.4 11C53.3769 12.0901 53.1535 13.1667 52.741 14.176C52.0123 16.0693 50.6797 18.1927 48.743 20.546C47.9607 21.4919 47.1458 22.4104 46.3 23.3L35.9 34.3L47.8 33.1C48.2773 32.146 48.661 31.352 48.951 30.718C48.9842 30.6454 49.0172 30.5728 49.05 30.5C49.35 29.8333 49.7 29.1 50.1 28.3C50.21 28.0801 50.3203 27.8605 50.431 27.641C50.6803 27.147 50.974 26.5687 51.312 25.906C51.4745 25.5872 51.6371 25.2686 51.8 24.95C52.3613 23.8527 53.079 22.4523 53.953 20.749C54.2353 20.1993 54.5176 19.6496 54.8 19.1L59.5 10.1L61.4 6.4C61.9431 5.36292 62.5544 4.36305 63.23 3.407C63.3511 3.23639 63.4744 3.06737 63.6 2.9C64.2047 2.09333 64.7713 1.59167 65.3 1.395C65.4596 1.33365 65.629 1.30147 65.8 1.3C66.0982 1.30257 66.3956 1.33337 66.688 1.392C67.2167 1.49333 67.804 1.67933 68.45 1.95C68.6427 2.02982 68.8316 2.11858 69.016 2.216C69.6307 2.54467 69.9573 2.88267 69.996 3.23C69.9986 3.25324 70 3.27661 70 3.3C69.5956 3.89274 69.2005 4.49182 68.815 5.097C68.4183 5.717 68.007 6.379 67.581 7.083C67.4365 7.3215 67.2928 7.5605 67.15 7.8C66.1167 9.53333 65 11.4 63.8 13.4C53.1087 31.2193 47.2607 44.2497 46.256 52.491C46.1555 53.2901 46.1034 54.0946 46.1 54.9C46.1 55.2333 46.1667 55.75 46.3 56.45C46.4333 57.15 46.6333 57.8 46.9 58.4C47.2067 59.198 47.4147 59.784 47.524 60.158C47.5329 60.1886 47.5416 60.2193 47.55 60.25C47.5601 60.2868 47.5694 60.3238 47.578 60.361C47.624 60.561 47.6263 60.6927 47.585 60.756C47.576 60.7702 47.5634 60.7818 47.5484 60.7895C47.5335 60.7972 47.5168 60.8008 47.5 60.8C47.0997 60.7986 46.7035 60.7181 46.3344 60.5631C45.9653 60.4082 45.6304 60.1818 45.349 59.897C45.0597 59.6223 44.7883 59.285 44.535 58.885C44.415 58.6949 44.3033 58.4997 44.2 58.3C43.8572 57.6001 43.5965 56.8628 43.423 56.103C43.141 54.9117 43 53.544 43 52C43.0138 51.3317 43.0783 50.6655 43.193 50.007C43.5457 47.7877 44.382 44.4823 45.702 40.091C46.1547 38.5899 46.6207 37.0928 47.1 35.6C46.9686 35.6008 46.8372 35.6055 46.706 35.614C46.2053 35.644 45.47 35.7227 44.5 35.85C43.2333 36.0167 41.5333 36.2667 39.4 36.6C37.5513 36.898 36.0093 37.1563 34.774 37.375C34.6326 37.3998 34.4913 37.4248 34.35 37.45C33.05 37.6833 32.1333 37.8667 31.6 38C29.2588 40.0524 26.8383 42.0126 24.344 43.876C19.5947 47.3987 15.3963 49.8033 11.749 51.09C9.90897 51.7815 7.96522 52.1568 6 52.2C5.14929 52.2084 4.30144 52.1004 3.48 51.879C2.10686 51.5094 0.887633 50.711 0 49.6C0.0215315 49.5785 0.0438813 49.5578 0.067 49.538C0.167667 49.452 0.245333 49.4227 0.3 49.45C0.335808 49.4683 0.37377 49.4821 0.413 49.491C0.441594 49.4971 0.470761 49.5001 0.5 49.5ZM67.9 34.8L70.2 30.9C71.4253 28.8073 72.6503 27.0567 73.875 25.648C74.2338 25.2338 74.6091 24.8341 75 24.45C75.5805 23.8717 76.2368 23.3748 76.951 22.973C77.9738 22.3993 79.1272 22.0986 80.3 22.1H80.5C83.1427 22.1 84.6467 23.635 85.012 26.705C85.0727 27.2345 85.1021 27.7671 85.1 28.3C85.1 29.8907 84.8267 31.9367 84.28 34.438C84.2537 34.5587 84.227 34.6794 84.2 34.8C83.9553 35.8771 83.6833 36.9478 83.384 38.011C82.8533 39.9123 82.192 42.0087 81.4 44.3L95.1 29.5C96.0333 28.9667 97.2333 28.7 98.7 28.7C98.9413 28.6993 99.1825 28.7083 99.423 28.727C100.199 28.7897 100.689 28.9647 100.892 29.252C100.964 29.3536 101.002 29.4755 101 29.6C99.0207 34.944 97.776 39.223 97.266 42.437C97.1007 43.4163 97.0117 44.4069 97 45.4C97 48.5333 97.5667 50.1 98.7 50.1L99.4 47.9C99.468 48.0635 99.5209 48.2329 99.558 48.406C99.6387 48.7633 99.685 49.2 99.697 49.716C99.6991 49.8107 99.7001 49.9053 99.7 50C99.7 51.1587 99.4617 51.93 98.985 52.314C98.7326 52.51 98.4194 52.6112 98.1 52.6C97.2331 52.6294 96.3776 52.3951 95.6465 51.9283C94.9154 51.4614 94.3431 50.7839 94.005 49.985C93.2683 48.4943 92.9 46.366 92.9 43.6C92.9 42.34 92.986 40.932 93.158 39.376C93.1868 39.1171 93.2175 38.8584 93.25 38.6C93.4833 36.7333 93.8333 34.6667 94.3 32.4C93.4333 33.2667 92.65 34.15 91.95 35.05C91.25 35.95 90.5 36.9667 89.7 38.1L84.5 45.4C84.0468 46.0441 83.5864 46.6831 83.119 47.317C81.4257 49.609 80.2417 50.959 79.567 51.367C79.4584 51.4427 79.3319 51.4886 79.2 51.5C78.8437 51.5013 78.4875 51.4896 78.132 51.465C77.0373 51.3843 76.328 51.168 76.004 50.816C75.8716 50.677 75.7984 50.492 75.8 50.3C75.804 50.2681 75.8097 50.2363 75.817 50.205C75.8857 49.875 76.159 48.707 76.637 46.701C76.7245 46.334 76.8122 45.967 76.9 45.6C77.374 43.8186 77.8286 42.0322 78.264 40.241C79.688 34.3577 80.4 30.244 80.4 27.9C80.4015 27.6612 80.3861 27.4226 80.354 27.186C80.222 26.262 79.804 25.8 79.1 25.8C76.6333 25.8 73.3 29.4333 69.1 36.7C68.8078 37.2324 68.5211 37.7677 68.24 38.306C67.9913 38.7813 67.7343 39.281 67.469 39.805C67.1928 40.3517 66.9198 40.9001 66.65 41.45C66.1061 42.5567 65.5761 43.6701 65.06 44.79C64.768 45.4242 64.4813 46.0609 64.2 46.7C64.0773 47.0687 63.8273 47.6633 63.45 48.484C63.4168 48.5561 63.3835 48.6281 63.35 48.7C62.9167 49.6333 62.5 50.5167 62.1 51.35C62.0531 51.4479 62.0058 51.5456 61.958 51.643C61.654 52.261 61.47 52.5797 61.406 52.599C61.4041 52.5996 61.402 52.6 61.4 52.6C60.9977 52.5977 60.5974 52.5416 60.21 52.433C59.8983 52.3464 59.594 52.2351 59.3 52.1C58.7113 51.8327 58.359 51.522 58.243 51.168C58.2145 51.0815 58.2 50.9911 58.2 50.9C58.212 50.584 58.2508 50.2695 58.316 49.96C58.5913 48.488 59.3553 45.7417 60.608 41.721C60.9016 40.7795 61.1989 39.8391 61.5 38.9C63.7 31.9667 64.8 26.7667 64.8 23.3C64.8027 23.0733 64.7768 22.8472 64.723 22.627C64.5557 21.9777 64.1147 21.602 63.4 21.5C63.2527 21.4795 63.1059 21.4549 62.96 21.426C62.32 21.296 62 21.1207 62 20.9C61.9939 20.7502 62.0332 20.6021 62.1125 20.4749C62.1919 20.3477 62.3078 20.2474 62.445 20.187C62.693 20.0623 63.0447 20 63.5 20C64.335 19.9913 65.1686 20.0704 65.987 20.236C68.423 20.758 69.8027 22.147 70.126 24.403C70.1767 24.7664 70.2014 25.133 70.2 25.5C70.2 27.2387 69.485 30.1897 68.055 34.353C68.0037 34.5021 67.952 34.6511 67.9 34.8ZM223 55H220.5C216.478 55 213.22 54.2233 210.725 52.67C209.265 51.7663 208.026 50.5463 207.1 49.1L207.3 48.5C210.3 49.8333 213.367 50.5 216.5 50.5C219.833 50.5 223.067 49.8667 226.2 48.6C226.832 48.3585 227.449 48.0803 228.049 47.767C230.083 46.6903 231.1 45.468 231.1 44.1C231.085 43.821 231.015 43.5477 230.894 43.296C230.412 42.18 229.084 40.4537 226.909 38.117C226.873 38.078 226.836 38.039 226.8 38C224.533 35.5333 222.417 33.2333 220.45 31.1C218.483 28.9667 217.133 27.3333 216.4 26.2C215.314 24.4448 214.655 22.4592 214.476 20.403C214.425 19.8702 214.399 19.3352 214.4 18.8C214.4 15 216.183 11.7333 219.75 9C221.202 7.90448 222.755 6.95015 224.388 6.15C227.313 4.692 230.817 3.442 234.9 2.4C237.583 1.744 239.8 1.23467 241.55 0.872C241.75 0.830643 241.95 0.789976 242.15 0.75C243.617 0.456667 244.646 0.280667 245.238 0.222C245.358 0.208943 245.479 0.201601 245.6 0.2C245.958 0.199173 246.315 0.21586 246.671 0.25C247.161 0.298 247.604 0.381333 248 0.5L250.5 3.1C250.742 3.3681 250.976 3.64391 251.201 3.927C251.856 4.75567 252.218 5.42233 252.287 5.927C252.295 5.9843 252.3 6.0421 252.3 6.1C252.282 6.54781 252.134 6.98064 251.873 7.345C251.258 8.28633 249.978 9.32633 248.035 10.465C247.661 10.6836 247.282 10.8953 246.9 11.1C246.299 11.4243 245.695 11.7416 245.087 12.052C242.666 13.284 241.104 13.9 240.4 13.9L240.3 13.4L245.4 9.9C246.733 8.96667 247.667 8.2 248.2 7.6C248.673 7.06733 248.937 6.587 248.99 6.159C248.997 6.10626 249 6.05316 249 6C248.998 5.88811 248.965 5.77892 248.906 5.68402C248.847 5.58913 248.763 5.51206 248.663 5.461C248.276 5.22033 247.555 5.1 246.5 5.1C243.585 5.11253 240.68 5.45369 237.841 6.117C236.41 6.44574 234.995 6.84049 233.6 7.3C231.128 8.04101 228.73 9.01227 226.439 10.201C224.778 11.0667 223.193 12.0698 221.7 13.2C219.859 14.5907 218.536 16.0023 217.733 17.435C217.135 18.4566 216.813 19.6163 216.8 20.8C216.829 21.4896 216.991 22.1671 217.278 22.795C218.319 25.3023 221.059 28.904 225.5 33.6C230.817 39.1613 233.697 43.462 234.14 46.502C234.179 46.7662 234.199 47.0329 234.2 47.3C234.202 48.1197 234.035 48.931 233.709 49.683C233.383 50.435 232.905 51.1115 232.305 51.67C231.874 52.0904 231.403 52.4688 230.9 52.8C229.308 53.8486 227.504 54.5335 225.617 54.806C224.751 54.9377 223.876 55.0026 223 55ZM110.1 29L117.4 12.2C117.734 11.3048 118.051 10.4037 118.352 9.497C119.185 6.97233 119.632 5.06967 119.693 3.789C119.698 3.69274 119.7 3.59637 119.7 3.5C119.703 3.23488 119.677 2.97025 119.621 2.711C119.422 1.837 118.848 1.4 117.9 1.4L114.4 2.1C113.933 2.1 113.7 1.9 113.7 1.5C113.702 1.29743 113.76 1.09935 113.868 0.927892C113.976 0.756431 114.129 0.618328 114.311 0.529C114.873 0.195667 115.823 0.02 117.162 0.002C117.241 0.000789874 117.321 0.000123192 117.4 0C118.997 0 120.356 0.172333 121.477 0.517C122.085 0.696777 122.665 0.960306 123.2 1.3C124.531 2.12467 125.23 3.28067 125.295 4.768C125.298 4.84529 125.3 4.92264 125.3 5C125.3 6.24533 124.442 8.67867 122.727 12.3C122.296 13.2058 121.854 14.1058 121.4 15L116.2 25.2C117.955 23.9639 120.011 23.2242 122.151 23.059C122.6 23.0192 123.05 22.9995 123.5 23C124.407 22.9878 125.311 23.0958 126.189 23.321C128.996 24.0843 130.4 26.2107 130.4 29.7C130.4 34.8333 127.933 40.4667 123 46.6C118.913 51.682 115.031 54.6587 111.355 55.53C110.616 55.7075 109.86 55.7981 109.1 55.8C105.833 55.8 103.167 54.1667 101.1 50.9C100.9 50.5667 100.9 50.3 101.1 50.1C101.783 50.5971 102.508 51.0353 103.265 51.41C104.112 51.8227 104.941 52.1063 105.754 52.261C106.231 52.3527 106.715 52.3992 107.2 52.4C109.55 52.3746 111.839 51.6471 113.773 50.311C114.989 49.5097 116.18 48.478 117.345 47.216C118.189 46.2935 118.976 45.3196 119.7 44.3C121.088 42.4048 122.292 40.3821 123.297 38.259C124.899 34.819 125.7 31.4327 125.7 28.1C125.703 27.7341 125.676 27.3686 125.62 27.007C125.409 25.7223 124.779 25.0543 123.732 25.003C123.688 25.0009 123.644 24.9999 123.6 25C120.667 25 117.267 27.9333 113.4 33.8C112.487 35.154 111.626 36.5427 110.819 37.963C108.606 41.8877 107.5 45.1 107.5 47.6C107.5 48.134 107.685 48.8263 108.054 49.677C108.101 49.7853 108.15 49.893 108.2 50C108.2 50.3333 107.95 50.4333 107.45 50.3C106.95 50.1667 106.467 49.75 106 49.05C105.631 48.496 105.407 47.785 105.33 46.917C105.309 46.6786 105.299 46.4393 105.3 46.2C105.304 45.598 105.341 44.9968 105.412 44.399C105.577 42.9497 105.923 41.2167 106.45 39.2C106.789 37.9176 107.175 36.6481 107.607 35.394C108.027 34.1647 108.509 32.8713 109.054 31.514C109.392 30.6715 109.741 29.8335 110.1 29ZM322.7 22.1H323.7C326.167 22.1 328.267 22.5833 330 23.55C330.452 23.7969 330.874 24.0959 331.257 24.441C331.681 24.8078 332.021 25.2623 332.253 25.7732C332.485 26.284 332.603 26.839 332.6 27.4C332.6 28.0573 332.359 28.42 331.877 28.488C331.818 28.4961 331.759 28.5001 331.7 28.5C331.66 28.5006 331.62 28.4955 331.581 28.485C331.492 28.4597 331.436 28.4017 331.413 28.311C331.404 28.2747 331.4 28.2374 331.4 28.2C331.146 27.5955 330.82 27.0234 330.43 26.496C329.425 25.1653 328.115 24.5 326.5 24.5C323.398 24.5 319.941 26.588 316.128 30.764C315.211 31.7741 314.334 32.8203 313.5 33.9C312.444 35.2234 311.436 36.585 310.479 37.982C307.626 42.1753 306.2 45.548 306.2 48.1C306.199 48.3138 306.21 48.5275 306.234 48.74C306.286 49.1707 306.396 49.491 306.564 49.701C306.639 49.7975 306.736 49.8749 306.846 49.9268C306.957 49.9788 307.078 50.0039 307.2 50C310.024 50 315.771 44.005 324.442 32.015C324.998 31.2459 325.551 30.4742 326.1 29.7C326.033 29.7667 326.083 29.75 326.25 29.65C326.302 29.6184 326.356 29.5903 326.412 29.566C326.469 29.542 326.524 29.5243 326.577 29.513C326.617 29.5045 326.659 29.5001 326.7 29.5C326.792 29.5033 326.883 29.5195 326.971 29.548C327.266 29.6353 327.692 29.8413 328.249 30.166C328.434 30.2746 328.618 30.3859 328.8 30.5C328.999 30.6115 329.194 30.7309 329.384 30.858C330.061 31.314 330.4 31.728 330.4 32.1L330 32.75C329.911 32.8954 329.826 33.0431 329.745 33.193C329.53 33.5883 329.281 34.0907 329 34.7C328.308 36.1631 327.703 37.6661 327.189 39.201C326.953 39.9102 326.74 40.6269 326.55 41.35C326.348 42.1158 326.175 42.889 326.032 43.668C325.894 44.4313 325.799 45.1513 325.747 45.828C325.716 46.2179 325.701 46.6089 325.7 47C325.697 47.5905 325.726 48.1807 325.788 48.768C325.917 49.9393 326.189 50.8193 326.604 51.408C326.788 51.6886 327.04 51.9178 327.336 52.0739C327.633 52.2299 327.965 52.3078 328.3 52.3L329.3 52.1L329.5 52.2C329.498 52.3121 329.465 52.4215 329.406 52.5165C329.347 52.6116 329.263 52.6889 329.163 52.74C328.776 52.98 328.055 53.1 327 53.1C325.4 53.1 324.067 52.3667 323 50.9C322.167 49.622 321.681 47.997 321.542 46.025C321.514 45.6173 321.5 45.2087 321.5 44.8C321.506 43.5151 321.611 42.2326 321.815 40.964C322.032 39.578 322.36 38.1233 322.8 36.6C322.733 36.8 322.5 37.1667 322.1 37.7C321.731 38.1913 321.165 39.0217 320.401 40.191C320.334 40.2939 320.267 40.3969 320.2 40.5C319.258 41.9667 318.273 43.406 317.248 44.816C313.162 50.4053 309.846 53.2 307.3 53.2C306.39 53.1956 305.504 52.9033 304.77 52.365C304.359 52.0705 303.983 51.73 303.65 51.35C302.833 50.4261 302.301 49.2861 302.116 48.067C302.037 47.582 301.998 47.0914 302 46.6C302 44.6667 303.167 41.6667 305.5 37.6C307.833 33.6 310.7 30 314.1 26.8C317.433 23.6667 320.3 22.1 322.7 22.1ZM390.5 22.1H391.5C393.967 22.1 396.067 22.5833 397.8 23.55C398.252 23.7969 398.674 24.0959 399.057 24.441C399.481 24.8078 399.821 25.2623 400.053 25.7732C400.285 26.284 400.403 26.839 400.4 27.4C400.4 28.0573 400.159 28.42 399.677 28.488C399.618 28.4961 399.559 28.5001 399.5 28.5C399.46 28.5006 399.42 28.4955 399.381 28.485C399.292 28.4597 399.236 28.4017 399.213 28.311C399.204 28.2747 399.2 28.2374 399.2 28.2C398.946 27.5955 398.62 27.0234 398.23 26.496C397.225 25.1653 395.915 24.5 394.3 24.5C391.198 24.5 387.741 26.588 383.928 30.764C383.011 31.7741 382.134 32.8203 381.3 33.9C380.244 35.2234 379.236 36.585 378.279 37.982C375.426 42.1753 374 45.548 374 48.1C373.999 48.3138 374.01 48.5275 374.034 48.74C374.086 49.1707 374.196 49.491 374.364 49.701C374.439 49.7975 374.536 49.8749 374.646 49.9268C374.757 49.9788 374.878 50.0039 375 50C377.824 50 383.571 44.005 392.242 32.015C392.798 31.2459 393.351 30.4742 393.9 29.7C393.833 29.7667 393.883 29.75 394.05 29.65C394.102 29.6184 394.156 29.5903 394.212 29.566C394.269 29.542 394.324 29.5243 394.377 29.513C394.417 29.5045 394.459 29.5001 394.5 29.5C394.592 29.5033 394.683 29.5195 394.771 29.548C395.066 29.6353 395.492 29.8413 396.049 30.166C396.234 30.2746 396.418 30.3859 396.6 30.5C396.799 30.6115 396.994 30.7309 397.184 30.858C397.861 31.314 398.2 31.728 398.2 32.1L397.8 32.75C397.711 32.8954 397.626 33.0431 397.545 33.193C397.33 33.5883 397.081 34.0907 396.8 34.7C396.108 36.1631 395.503 37.6661 394.989 39.201C394.753 39.9102 394.54 40.6269 394.35 41.35C394.148 42.1158 393.975 42.889 393.832 43.668C393.694 44.4313 393.599 45.1513 393.547 45.828C393.516 46.2179 393.501 46.6089 393.5 47C393.497 47.5905 393.527 48.1807 393.588 48.768C393.717 49.9393 393.989 50.8193 394.404 51.408C394.588 51.6886 394.84 51.9178 395.136 52.0739C395.433 52.2299 395.765 52.3078 396.1 52.3L397.1 52.1L397.3 52.2C397.298 52.3121 397.265 52.4215 397.206 52.5165C397.147 52.6116 397.063 52.6889 396.963 52.74C396.576 52.98 395.855 53.1 394.8 53.1C393.2 53.1 391.867 52.3667 390.8 50.9C389.967 49.622 389.481 47.997 389.342 46.025C389.314 45.6173 389.3 45.2087 389.3 44.8C389.306 43.5151 389.411 42.2326 389.615 40.964C389.832 39.578 390.16 38.1233 390.6 36.6C390.533 36.8 390.3 37.1667 389.9 37.7C389.531 38.1913 388.965 39.0217 388.201 40.191C388.134 40.2939 388.067 40.3969 388 40.5C387.058 41.9667 386.073 43.406 385.048 44.816C380.962 50.4053 377.646 53.2 375.1 53.2C374.19 53.1956 373.304 52.9033 372.57 52.365C372.159 52.0705 371.783 51.73 371.45 51.35C370.633 50.4261 370.101 49.2861 369.916 48.067C369.837 47.582 369.798 47.0914 369.8 46.6C369.8 44.6667 370.967 41.6667 373.3 37.6C375.633 33.6 378.5 30 381.9 26.8C385.233 23.6667 388.1 22.1 390.5 22.1ZM443.4 22.1H444.4C446.867 22.1 448.967 22.5833 450.7 23.55C451.152 23.7969 451.574 24.0959 451.957 24.441C452.381 24.8078 452.721 25.2623 452.953 25.7732C453.185 26.284 453.303 26.839 453.3 27.4C453.3 28.0573 453.059 28.42 452.577 28.488C452.518 28.4961 452.459 28.5001 452.4 28.5C452.36 28.5006 452.32 28.4955 452.281 28.485C452.192 28.4597 452.136 28.4017 452.113 28.311C452.104 28.2747 452.1 28.2374 452.1 28.2C451.846 27.5955 451.52 27.0234 451.13 26.496C450.125 25.1653 448.815 24.5 447.2 24.5C444.098 24.5 440.641 26.588 436.828 30.764C435.911 31.7741 435.034 32.8203 434.2 33.9C433.144 35.2234 432.136 36.585 431.179 37.982C428.326 42.1753 426.9 45.548 426.9 48.1C426.899 48.3138 426.91 48.5275 426.934 48.74C426.986 49.1707 427.096 49.491 427.264 49.701C427.339 49.7975 427.436 49.8749 427.546 49.9268C427.657 49.9788 427.778 50.0039 427.9 50C430.724 50 436.471 44.005 445.142 32.015C445.698 31.2459 446.251 30.4742 446.8 29.7C446.733 29.7667 446.783 29.75 446.95 29.65C447.002 29.6184 447.056 29.5903 447.112 29.566C447.169 29.542 447.224 29.5243 447.277 29.513C447.317 29.5045 447.359 29.5001 447.4 29.5C447.492 29.5033 447.583 29.5195 447.671 29.548C447.966 29.6353 448.392 29.8413 448.949 30.166C449.134 30.2746 449.318 30.3859 449.5 30.5C449.699 30.6115 449.894 30.7309 450.084 30.858C450.761 31.314 451.1 31.728 451.1 32.1L450.7 32.75C450.611 32.8954 450.526 33.0431 450.445 33.193C450.23 33.5883 449.981 34.0907 449.7 34.7C449.008 36.1631 448.403 37.6661 447.889 39.201C447.653 39.9102 447.44 40.6269 447.25 41.35C447.048 42.1158 446.875 42.889 446.732 43.668C446.594 44.4313 446.499 45.1513 446.447 45.828C446.416 46.2179 446.401 46.6089 446.4 47C446.397 47.5905 446.427 48.1807 446.488 48.768C446.617 49.9393 446.889 50.8193 447.304 51.408C447.488 51.6886 447.74 51.9178 448.036 52.0739C448.333 52.2299 448.665 52.3078 449 52.3L450 52.1L450.2 52.2C450.198 52.3121 450.165 52.4215 450.106 52.5165C450.047 52.6116 449.963 52.6889 449.863 52.74C449.476 52.98 448.755 53.1 447.7 53.1C446.1 53.1 444.767 52.3667 443.7 50.9C442.867 49.622 442.381 47.997 442.242 46.025C442.214 45.6173 442.2 45.2087 442.2 44.8C442.206 43.5151 442.311 42.2326 442.515 40.964C442.732 39.578 443.06 38.1233 443.5 36.6C443.433 36.8 443.2 37.1667 442.8 37.7C442.431 38.1913 441.865 39.0217 441.101 40.191C441.034 40.2939 440.967 40.3969 440.9 40.5C439.958 41.9667 438.973 43.406 437.948 44.816C433.862 50.4053 430.546 53.2 428 53.2C427.09 53.1956 426.204 52.9033 425.47 52.365C425.059 52.0705 424.683 51.73 424.35 51.35C423.533 50.4261 423.001 49.2861 422.816 48.067C422.737 47.582 422.698 47.0914 422.7 46.6C422.7 44.6667 423.867 41.6667 426.2 37.6C428.533 33.6 431.4 30 434.8 26.8C438.133 23.6667 441 22.1 443.4 22.1ZM152.1 22.1H153.1C155.567 22.1 157.667 22.5833 159.4 23.55C159.852 23.7969 160.274 24.0959 160.657 24.441C161.081 24.8078 161.421 25.2623 161.653 25.7732C161.885 26.284 162.003 26.839 162 27.4C162 28.0573 161.759 28.42 161.277 28.488C161.218 28.4961 161.159 28.5001 161.1 28.5C161.06 28.5006 161.02 28.4955 160.981 28.485C160.892 28.4597 160.836 28.4017 160.813 28.311C160.804 28.2747 160.8 28.2374 160.8 28.2C160.546 27.5955 160.22 27.0234 159.83 26.496C158.825 25.1653 157.515 24.5 155.9 24.5C152.798 24.5 149.341 26.588 145.528 30.764C144.611 31.7741 143.734 32.8203 142.9 33.9C141.844 35.2234 140.836 36.585 139.879 37.982C137.026 42.1753 135.6 45.548 135.6 48.1C135.599 48.3138 135.61 48.5275 135.634 48.74C135.686 49.1707 135.796 49.491 135.964 49.701C136.039 49.7975 136.136 49.8749 136.246 49.9268C136.357 49.9788 136.478 50.0039 136.6 50C139.424 50 145.171 44.005 153.842 32.015C154.398 31.2459 154.951 30.4742 155.5 29.7C155.433 29.7667 155.483 29.75 155.65 29.65C155.702 29.6184 155.756 29.5903 155.812 29.566C155.869 29.542 155.924 29.5243 155.977 29.513C156.017 29.5045 156.059 29.5001 156.1 29.5C156.192 29.5033 156.283 29.5195 156.371 29.548C156.666 29.6353 157.092 29.8413 157.649 30.166C157.834 30.2746 158.018 30.3859 158.2 30.5C158.399 30.6115 158.594 30.7309 158.784 30.858C159.461 31.314 159.8 31.728 159.8 32.1L159.4 32.75C159.311 32.8954 159.226 33.0431 159.145 33.193C158.93 33.5883 158.681 34.0907 158.4 34.7C157.708 36.1631 157.103 37.6661 156.589 39.201C156.353 39.9102 156.14 40.6269 155.95 41.35C155.748 42.1158 155.575 42.889 155.432 43.668C155.294 44.4313 155.199 45.1513 155.147 45.828C155.116 46.2179 155.101 46.6089 155.1 47C155.097 47.5905 155.127 48.1807 155.188 48.768C155.317 49.9393 155.589 50.8193 156.004 51.408C156.188 51.6886 156.44 51.9178 156.736 52.0739C157.033 52.2299 157.365 52.3078 157.7 52.3L158.7 52.1L158.9 52.2C158.898 52.3121 158.865 52.4215 158.806 52.5165C158.747 52.6116 158.663 52.6889 158.563 52.74C158.176 52.98 157.455 53.1 156.4 53.1C154.8 53.1 153.467 52.3667 152.4 50.9C151.567 49.622 151.081 47.997 150.942 46.025C150.914 45.6173 150.9 45.2087 150.9 44.8C150.906 43.5151 151.011 42.2326 151.215 40.964C151.432 39.578 151.76 38.1233 152.2 36.6C152.133 36.8 151.9 37.1667 151.5 37.7C151.131 38.1913 150.565 39.0217 149.801 40.191C149.734 40.2939 149.667 40.3969 149.6 40.5C148.658 41.9667 147.673 43.406 146.648 44.816C142.562 50.4053 139.246 53.2 136.7 53.2C135.79 53.1956 134.904 52.9033 134.17 52.365C133.759 52.0705 133.383 51.73 133.05 51.35C132.233 50.4261 131.701 49.2861 131.516 48.067C131.437 47.582 131.398 47.0914 131.4 46.6C131.4 44.6667 132.567 41.6667 134.9 37.6C137.233 33.6 140.1 30 143.5 26.8C146.833 23.6667 149.7 22.1 152.1 22.1ZM165.128 52.494C165.414 52.5624 165.706 52.598 166 52.6C166.145 52.602 166.289 52.5747 166.423 52.5199C166.557 52.4651 166.679 52.3839 166.781 52.281C166.896 52.1697 166.998 52.0293 167.089 51.86C167.175 51.6967 167.245 51.526 167.3 51.35C167.567 50.5167 167.9 49.3 168.3 47.7C168.401 47.2609 168.514 46.8247 168.639 46.392C168.81 45.8 169.013 45.1667 169.248 44.492C169.5 43.7725 169.768 43.0583 170.05 42.35C170.329 41.6563 170.647 40.9791 171.004 40.322C171.433 39.522 171.942 38.6837 172.53 37.807C173.154 36.8813 173.811 35.9784 174.5 35.1C174.787 34.763 175.076 34.4287 175.369 34.097C176.287 33.0578 177.231 32.0418 178.2 31.05C178.54 30.7021 178.887 30.3611 179.24 30.027C180.34 28.9897 181.495 28.0126 182.7 27.1C182.369 27.96 182.203 28.9183 182.2 29.975C182.2 29.9833 182.2 29.9917 182.2 30C182.2 30.1893 182.208 30.3784 182.224 30.567C182.267 31.0691 182.36 31.5658 182.5 32.05C182.577 32.3193 182.678 32.5811 182.803 32.832C183.015 33.2552 183.283 33.648 183.6 34C183.672 34.077 183.746 34.152 183.822 34.225C184.225 34.6312 184.704 34.9532 185.233 35.1721C185.761 35.391 186.328 35.5025 186.9 35.5C186.974 35.5002 187.047 35.4996 187.121 35.498C187.806 35.4813 188.293 35.3857 188.582 35.211C188.677 35.1632 188.757 35.0903 188.813 35.0002C188.869 34.91 188.899 34.8062 188.9 34.7C188.9 34.6886 188.899 34.6773 188.898 34.666C188.884 34.5553 188.801 34.5 188.65 34.5C188.612 34.5002 188.574 34.4985 188.536 34.495C188.419 34.4843 188.305 34.4521 188.2 34.4C186.933 34 186.3 32.9 186.3 31.1C186.367 30.3 186.8 29.1833 187.6 27.75C187.908 27.1993 188.226 26.6549 188.556 26.117C189.143 25.1602 189.758 24.2208 190.4 23.3C190.437 23.2541 190.474 23.2081 190.511 23.162C190.732 22.8833 190.928 22.6293 191.1 22.4C191.104 22.3947 191.109 22.3893 191.113 22.384C191.306 22.1293 191.435 22.0347 191.5 22.1C191.486 22.0774 191.47 22.0566 191.451 22.038C191.218 21.8033 190.493 21.663 189.277 21.617C188.951 21.6052 188.626 21.5995 188.3 21.6C187.523 21.5917 186.759 21.7946 186.089 22.187C185.537 22.511 185.034 22.9693 184.579 23.562C184.195 24.0717 183.867 24.6208 183.6 25.2C179.2 27.4 175.2 31.4333 171.6 37.3C173.387 31.7753 174.449 28.143 174.784 26.403C174.849 26.1059 174.888 25.8038 174.9 25.5C174.901 25.133 174.877 24.7664 174.826 24.403C174.503 22.147 173.123 20.758 170.687 20.236C169.869 20.0704 169.035 19.9913 168.2 20C167.745 20 167.393 20.0623 167.145 20.187C167.008 20.2474 166.892 20.3477 166.813 20.4749C166.733 20.6021 166.694 20.7502 166.7 20.9C166.7 21.1207 167.02 21.296 167.66 21.426C167.806 21.4549 167.953 21.4795 168.1 21.5C168.815 21.602 169.256 21.9777 169.423 22.627C169.477 22.8472 169.503 23.0733 169.5 23.3C169.5 26.7667 168.4 31.9667 166.2 38.9C165.899 39.8391 165.602 40.7795 165.308 41.721C164.055 45.7417 163.291 48.488 163.016 49.96C162.951 50.2695 162.912 50.584 162.9 50.9C162.9 50.9911 162.914 51.0815 162.943 51.168C163.059 51.522 163.411 51.8327 164 52.1C164.395 52.28 164.771 52.4113 165.128 52.494ZM241.428 52.494C241.714 52.5624 242.006 52.598 242.3 52.6C242.445 52.602 242.589 52.5747 242.723 52.5199C242.857 52.4651 242.979 52.3839 243.081 52.281C243.196 52.1697 243.298 52.0293 243.389 51.86C243.475 51.6967 243.545 51.526 243.6 51.35C243.867 50.5167 244.2 49.3 244.6 47.7C244.701 47.2609 244.814 46.8247 244.939 46.392C245.11 45.8 245.313 45.1667 245.548 44.492C245.8 43.7725 246.068 43.0583 246.35 42.35C246.629 41.6563 246.947 40.9791 247.304 40.322C247.733 39.522 248.242 38.6837 248.83 37.807C249.454 36.8813 250.111 35.9784 250.8 35.1C251.087 34.763 251.376 34.4287 251.669 34.097C252.587 33.0578 253.531 32.0418 254.5 31.05C254.84 30.7021 255.187 30.3611 255.54 30.027C256.64 28.9897 257.795 28.0126 259 27.1C258.669 27.96 258.503 28.9183 258.5 29.975C258.5 29.9833 258.5 29.9917 258.5 30C258.5 30.1893 258.508 30.3784 258.524 30.567C258.567 31.0691 258.66 31.5658 258.8 32.05C258.877 32.3193 258.978 32.5811 259.103 32.832C259.315 33.2552 259.583 33.648 259.9 34C259.972 34.077 260.046 34.152 260.122 34.225C260.525 34.6312 261.004 34.9532 261.533 35.1721C262.061 35.391 262.628 35.5025 263.2 35.5C263.274 35.5002 263.347 35.4996 263.421 35.498C264.106 35.4813 264.593 35.3857 264.882 35.211C264.977 35.1632 265.057 35.0903 265.113 35.0002C265.169 34.91 265.199 34.8062 265.2 34.7C265.2 34.6886 265.199 34.6773 265.198 34.666C265.184 34.5553 265.101 34.5 264.95 34.5C264.912 34.5002 264.874 34.4985 264.836 34.495C264.719 34.4843 264.605 34.4521 264.5 34.4C263.233 34 262.6 32.9 262.6 31.1C262.667 30.3 263.1 29.1833 263.9 27.75C264.208 27.1993 264.526 26.6549 264.856 26.117C265.443 25.1602 266.058 24.2208 266.7 23.3C266.737 23.2541 266.774 23.2081 266.811 23.162C267.032 22.8833 267.228 22.6293 267.4 22.4C267.404 22.3947 267.409 22.3893 267.413 22.384C267.606 22.1293 267.735 22.0347 267.8 22.1C267.786 22.0774 267.77 22.0566 267.751 22.038C267.518 21.8033 266.793 21.663 265.577 21.617C265.251 21.6052 264.926 21.5995 264.6 21.6C263.823 21.5917 263.059 21.7946 262.389 22.187C261.837 22.511 261.334 22.9693 260.879 23.562C260.495 24.0717 260.167 24.6208 259.9 25.2C255.5 27.4 251.5 31.4333 247.9 37.3C249.687 31.7753 250.749 28.143 251.084 26.403C251.149 26.1059 251.188 25.8038 251.2 25.5C251.201 25.133 251.177 24.7664 251.126 24.403C250.803 22.147 249.423 20.758 246.987 20.236C246.169 20.0704 245.335 19.9913 244.5 20C244.045 20 243.693 20.0623 243.445 20.187C243.308 20.2474 243.192 20.3477 243.113 20.4749C243.033 20.6021 242.994 20.7502 243 20.9C243 21.1207 243.32 21.296 243.96 21.426C244.106 21.4549 244.253 21.4795 244.4 21.5C245.115 21.602 245.556 21.9777 245.723 22.627C245.777 22.8472 245.803 23.0733 245.8 23.3C245.8 26.7667 244.7 31.9667 242.5 38.9C242.199 39.8391 241.902 40.7795 241.608 41.721C240.355 45.7417 239.591 48.488 239.316 49.96C239.251 50.2695 239.212 50.584 239.2 50.9C239.2 50.9911 239.214 51.0815 239.243 51.168C239.359 51.522 239.711 51.8327 240.3 52.1C240.695 52.28 241.071 52.4113 241.428 52.494ZM286.2 53.6C284.2 53.6 283.2 53.1333 283.2 52.2C284.091 42.6407 284.585 36.5713 284.682 33.992C284.693 33.7281 284.699 33.4641 284.7 33.2C284.702 32.3291 284.678 31.4584 284.626 30.589C284.467 28.0337 284.05 26.3243 283.375 25.461C283.242 25.269 283.067 25.1097 282.864 24.9952C282.66 24.8807 282.433 24.8139 282.2 24.8C282.067 24.8667 281.85 25.1667 281.55 25.7C281.302 26.1413 281.088 26.4 280.908 26.476C280.874 26.4912 280.837 26.4993 280.8 26.5C280.652 26.5078 280.505 26.4717 280.377 26.396C280.249 26.3204 280.146 26.2087 280.082 26.075C279.971 25.863 279.91 25.5713 279.901 25.2C279.9 25.1667 279.9 25.1333 279.9 25.1C279.886 24.767 279.972 24.4375 280.148 24.1542C280.324 23.871 280.58 23.6472 280.885 23.512C281.43 23.2373 282.202 23.1 283.2 23.1C284.257 23.0684 285.299 23.3603 286.185 23.9369C287.072 24.5134 287.761 25.3469 288.161 26.326C288.932 27.9133 289.37 30.0863 289.475 32.845C289.492 33.2965 289.5 33.7482 289.5 34.2C289.5 34.2907 289.497 34.3814 289.493 34.472C289.48 34.7673 289.449 35.1937 289.4 35.751C289.384 35.934 289.367 36.1171 289.35 36.3C289.273 37.1167 289.148 38.168 288.974 39.454C288.917 39.8695 288.859 40.2849 288.8 40.7C288.799 40.7533 288.806 40.8065 288.82 40.858C288.854 40.9767 288.931 41.0517 289.052 41.083C289.1 41.0949 289.15 41.1006 289.2 41.1C289.253 41.099 289.304 41.0826 289.347 41.053C289.431 40.999 289.515 40.898 289.6 40.75C289.627 40.7027 289.655 40.6557 289.683 40.609C289.776 40.455 289.848 40.352 289.9 40.3C291.524 37.996 293.201 35.7297 294.93 33.503C297.678 29.975 300.268 26.974 302.7 24.5C303.435 23.7494 304.19 23.0192 304.965 22.31C307.271 20.21 309.114 18.978 310.494 18.614C310.757 18.5416 311.028 18.5033 311.3 18.5C312.1 18.5 312.5 18.8667 312.5 19.6C312.501 19.717 312.487 19.8336 312.458 19.947C312.414 20.1184 312.325 20.2749 312.2 20.4C310.687 21.2992 309.238 22.3013 307.863 23.399C306.441 24.521 304.969 25.809 303.447 27.263C302.02 28.6312 300.637 30.0443 299.3 31.5C294.7 36.4333 291.167 42.2 288.7 48.8C287.9 52 287.067 53.6 286.2 53.6ZM406.9 53.6C404.9 53.6 403.9 53.1333 403.9 52.2C404.791 42.6407 405.285 36.5713 405.382 33.992C405.393 33.7281 405.399 33.4641 405.4 33.2C405.402 32.3291 405.378 31.4584 405.326 30.589C405.167 28.0337 404.75 26.3243 404.075 25.461C403.942 25.269 403.767 25.1097 403.564 24.9952C403.36 24.8807 403.133 24.8139 402.9 24.8C402.767 24.8667 402.55 25.1667 402.25 25.7C402.002 26.1413 401.788 26.4 401.608 26.476C401.574 26.4912 401.537 26.4993 401.5 26.5C401.352 26.5078 401.205 26.4717 401.077 26.396C400.949 26.3204 400.846 26.2087 400.782 26.075C400.671 25.863 400.61 25.5713 400.601 25.2C400.6 25.1667 400.6 25.1333 400.6 25.1C400.586 24.767 400.672 24.4375 400.848 24.1542C401.024 23.871 401.28 23.6472 401.585 23.512C402.13 23.2373 402.902 23.1 403.9 23.1C404.957 23.0684 405.999 23.3603 406.885 23.9369C407.772 24.5134 408.461 25.3469 408.861 26.326C409.632 27.9133 410.07 30.0863 410.175 32.845C410.192 33.2965 410.2 33.7482 410.2 34.2C410.2 34.2907 410.197 34.3814 410.193 34.472C410.18 34.7673 410.149 35.1937 410.1 35.751C410.084 35.934 410.067 36.1171 410.05 36.3C409.973 37.1167 409.848 38.168 409.674 39.454C409.617 39.8695 409.559 40.2849 409.5 40.7C409.499 40.7533 409.506 40.8065 409.52 40.858C409.554 40.9767 409.631 41.0517 409.752 41.083C409.8 41.0949 409.85 41.1006 409.9 41.1C409.953 41.099 410.004 41.0826 410.047 41.053C410.131 40.999 410.215 40.898 410.3 40.75C410.327 40.7027 410.355 40.6557 410.383 40.609C410.476 40.455 410.548 40.352 410.6 40.3C412.224 37.996 413.901 35.7297 415.63 33.503C418.378 29.975 420.968 26.974 423.4 24.5C424.135 23.7494 424.89 23.0192 425.665 22.31C427.971 20.21 429.814 18.978 431.194 18.614C431.457 18.5416 431.728 18.5033 432 18.5C432.8 18.5 433.2 18.8667 433.2 19.6C433.201 19.717 433.187 19.8336 433.158 19.947C433.114 20.1184 433.025 20.2749 432.9 20.4C431.387 21.2992 429.938 22.3013 428.563 23.399C427.141 24.521 425.669 25.809 424.147 27.263C422.72 28.6312 421.337 30.0443 420 31.5C415.4 36.4333 411.867 42.2 409.4 48.8C408.6 52 407.767 53.6 406.9 53.6ZM364 11.9L362 12.4C361.96 12.4006 361.92 12.3955 361.881 12.385C361.792 12.3597 361.736 12.3017 361.713 12.211C361.704 12.1747 361.7 12.1374 361.7 12.1C361.701 11.9581 361.731 11.8179 361.79 11.6886C361.848 11.5592 361.933 11.4435 362.039 11.349C362.238 11.157 362.525 10.9907 362.9 10.85C363.7 10.55 364.3 10.4 364.7 10.4C367.541 10.4 369.006 11.9633 369.096 15.09C369.099 15.1933 369.1 15.2967 369.1 15.4C369.095 16.0663 369.036 16.7311 368.924 17.388C368.667 18.9753 368.125 20.846 367.3 23C367.381 23.0687 367.476 23.1186 367.578 23.146C368.055 23.3027 369.039 23.387 370.53 23.399C370.653 23.3998 370.777 23.4001 370.9 23.4C371.477 23.4015 372.054 23.3831 372.63 23.345C373.995 23.2503 375.085 23.0353 375.9 22.7C376.131 22.5841 376.365 22.4737 376.601 22.369C377.281 22.069 377.799 21.913 378.156 21.901C378.171 21.9004 378.185 21.9001 378.2 21.9C378.236 21.8998 378.271 21.9025 378.306 21.908C378.429 21.928 378.494 21.9873 378.5 22.086C378.5 22.0907 378.5 22.0953 378.5 22.1C378.5 22.3 378.333 22.5667 378 22.9C377.003 23.7479 375.924 24.4939 374.778 25.127C374.214 25.4412 373.638 25.7325 373.05 26C371.15 26.8667 368.967 27.4667 366.5 27.8H366.2C366.179 27.8002 366.157 27.8015 366.136 27.804C366.075 27.8107 365.996 27.826 365.9 27.85C365.864 27.859 365.828 27.8687 365.793 27.879C365.644 27.9223 365.413 27.996 365.1 28.1C360.314 37.6193 357.416 44.4003 356.406 48.443C356.167 49.3097 356.031 50.2015 356 51.1C355.998 51.2941 356.015 51.4879 356.049 51.679C356.17 52.321 356.518 52.6603 357.093 52.697C357.129 52.6991 357.164 52.7001 357.2 52.7L360 52.1L360.1 52.2C360.1 53.5493 359.078 54.2483 357.035 54.297C356.957 54.2989 356.878 54.2999 356.8 54.3C356.202 54.3094 355.606 54.2282 355.032 54.059C353.743 53.6557 352.928 52.747 352.586 51.333C352.456 50.7647 352.393 50.183 352.4 49.6C352.408 48.6343 352.5 47.6711 352.673 46.721C353.018 44.747 353.688 42.4703 354.685 39.891C354.852 39.4588 355.024 39.0284 355.2 38.6L357.4 33.4C357.765 32.5362 358.131 31.6726 358.497 30.809C358.936 29.7717 359.404 28.6687 359.9 27.5C357.633 26.6333 356.5 25.3333 356.5 23.6C356.499 23.4715 356.508 23.3431 356.527 23.216C356.548 23.0873 356.579 22.9723 356.621 22.871C356.679 22.7244 356.775 22.5962 356.9 22.5C357.234 22.6525 357.579 22.7799 357.932 22.881C358.857 23.153 360.047 23.3593 361.5 23.5C361.883 22.6425 362.257 21.7807 362.621 20.915C364.074 17.455 364.8 15.1833 364.8 14.1C364.8 12.6333 364.533 11.9 364 11.9ZM335.568 54.515C336.272 54.6415 336.985 54.7035 337.7 54.7C338.132 54.6993 338.564 54.6695 338.992 54.611C339.621 54.5238 340.243 54.3864 340.85 54.2C341.95 53.8667 343 53.3667 344 52.7C345.065 51.978 345.826 51.2447 346.283 50.5C346.612 49.9931 346.791 49.404 346.8 48.8C346.792 48.5044 346.736 48.212 346.635 47.934C346.268 46.8433 345.288 45.3227 343.697 43.372C343.178 42.7372 342.645 42.113 342.1 41.5C341.939 41.3116 341.778 41.1229 341.617 40.934C339.339 38.2513 337.984 36.5313 337.552 35.774C337.475 35.6616 337.423 35.5341 337.4 35.4C337.4 35.1269 337.423 34.8543 337.468 34.585C337.705 33.1623 338.563 31.7527 340.044 30.356C340.689 29.7555 341.376 29.2021 342.1 28.7C343.6 27.6687 345.078 26.8793 346.534 26.332C348.086 25.7294 349.735 25.4136 351.4 25.4C351.402 25.4 351.403 25.4 351.405 25.4C351.606 25.4007 351.937 25.4507 352.4 25.55C352.867 25.65 353.467 25.7667 354.2 25.9C354.462 25.9 354.621 25.787 354.677 25.561C354.693 25.4919 354.701 25.421 354.7 25.35C354.7 25.3292 354.698 25.3085 354.694 25.288C354.638 24.968 354.178 24.3497 353.314 23.433C353.08 23.1852 352.842 22.9409 352.6 22.7C351.506 21.6067 350.697 20.9403 350.173 20.701C350.057 20.6418 349.93 20.6074 349.8 20.6C348.64 20.613 347.49 20.8171 346.397 21.204C345.386 21.5473 344.34 22.0383 343.259 22.677C342.192 23.3142 341.17 24.0236 340.2 24.8C338.337 26.2613 336.985 27.7323 336.143 29.213C335.477 30.329 335.118 31.6007 335.1 32.9C335.105 35.4111 335.887 37.8591 337.339 39.908C338.187 41.1226 339.182 42.2282 340.3 43.2C340.401 43.2899 340.502 43.3802 340.602 43.471C341.843 44.5937 342.602 45.413 342.88 45.929C342.949 46.0414 342.99 46.1686 343 46.3C343 48.1593 340.421 49.7943 335.262 51.205C334.017 51.5414 332.763 51.8399 331.5 52.1C331.5 52.1528 331.506 52.2055 331.518 52.257C331.602 52.635 331.988 53.029 332.675 53.439C332.895 53.5688 333.12 53.6892 333.35 53.8C334.054 54.1375 334.8 54.378 335.568 54.515ZM264.8 48.4C264.797 48.9577 264.832 49.515 264.904 50.068C265.253 52.6227 266.485 53.9 268.6 53.9C269.225 53.9 270.196 53.5543 271.513 52.863C271.914 52.6512 272.31 52.4301 272.7 52.2C274.633 51.0667 275.6 50.1333 275.6 49.4C275.601 49.3501 275.595 49.3004 275.583 49.252C275.552 49.1313 275.477 49.054 275.358 49.02C275.307 49.006 275.253 48.9993 275.2 49C274.933 49.2 274.65 49.4333 274.35 49.7C274.325 49.7224 274.3 49.7448 274.275 49.767C274.05 49.963 273.728 50.2343 273.309 50.581C273.14 50.7211 272.97 50.8608 272.8 51C272.663 51.108 272.523 51.2124 272.38 51.313C271.91 51.6437 271.487 51.8703 271.111 51.993C270.914 52.0605 270.708 52.0966 270.5 52.1C269.633 52.1 269.2 51.2667 269.2 49.6C269.2 49.516 269.201 49.432 269.203 49.348C269.222 48.6167 269.324 47.7403 269.507 46.719C269.608 46.1601 269.723 45.6036 269.85 45.05C269.852 45.0397 269.855 45.0293 269.857 45.019C270.291 43.1237 271.005 40.7173 272 37.8C272.395 36.643 272.806 35.4919 273.235 34.347C273.743 32.9862 274.282 31.6369 274.85 30.3C275.283 29.2817 275.747 28.2772 276.242 27.288C276.752 26.2687 277.305 25.2718 277.9 24.3C277.877 24.1894 277.837 24.0829 277.782 23.984C277.466 23.4153 276.639 23.0703 275.3 22.949C274.901 22.9147 274.501 22.8984 274.1 22.9C273.3 22.9 272.667 23.1333 272.2 23.6C272.044 23.7567 271.837 24.0757 271.579 24.557C271.501 24.7036 271.424 24.8513 271.35 25C271.306 25.0886 271.262 25.1776 271.22 25.267C271.015 25.6983 270.885 26.034 270.83 26.274C270.812 26.348 270.802 26.4238 270.8 26.5C270.422 27.3558 270.054 28.2158 269.696 29.08C267.561 34.2353 266.125 38.7737 265.386 42.695C265.015 44.5745 264.819 46.4843 264.8 48.4ZM283.3 8.4L282.8 11.3C282.467 13.3667 281.867 14.9167 281 15.95C280.133 16.9833 279.2 17.5 278.2 17.5C277.662 17.5042 277.126 17.4427 276.603 17.317C275.864 17.1408 275.178 16.7923 274.6 16.3C275.188 15.8951 275.759 15.4647 276.31 15.01C277.064 14.3907 277.844 13.6873 278.65 12.9C280.083 11.5 281.567 9.83333 283.1 7.9C283.127 7.90018 283.153 7.90776 283.175 7.92189C283.198 7.93601 283.216 7.95613 283.228 7.98C283.271 8.052 283.295 8.17367 283.299 8.345C283.3 8.36333 283.3 8.38166 283.3 8.4Z" fill="white" fill-opacity="0.8" stroke="white" stroke-opacity="0.8" stroke-linecap="round"/>
</g>
<defs>
<clipPath id="clip0_8_166">
<rect width="453.3" height="60.8" fill="white"/>
</clipPath>
</defs>
</svg>
