<svg width="338" height="336" viewBox="0 0 338 336" fill="none" xmlns="http://www.w3.org/2000/svg">
<g clip-path="url(#clip0_0_14832)">
<mask id="mask0_0_14832" style="mask-type:alpha" maskUnits="userSpaceOnUse" x="0" y="0" width="338" height="336">
<ellipse cx="169" cy="168" rx="169" ry="168" fill="url(#paint0_radial_0_14832)"/>
</mask>
<g mask="url(#mask0_0_14832)">
<circle cx="170" r="167.25" stroke="url(#paint1_angular_0_14832)" stroke-width="1.5"/>
<circle opacity="0.5" cx="170" r="168" fill="url(#paint2_angular_0_14832)"/>
<circle cx="170" cy="336" r="167.25" stroke="url(#paint3_angular_0_14832)" stroke-width="1.5"/>
<circle opacity="0.1" cx="170" cy="336" r="168" fill="url(#paint4_angular_0_14832)"/>
<g filter="url(#filter0_bi_0_14832)">
<rect x="49" y="197.923" width="60" height="60" rx="30" transform="rotate(-90 49 197.923)" fill="#F8F8F8" fill-opacity="0.01"/>
<rect x="49.75" y="197.173" width="58.5" height="58.5" rx="29.25" transform="rotate(-90 49.75 197.173)" stroke="#F8F8F8" stroke-opacity="0.1" stroke-width="1.5"/>
<path d="M79.4855 170.568C80.9186 170.568 82.0804 169.406 82.0804 167.972C82.0804 166.538 80.9186 165.376 79.4855 165.376C78.0524 165.376 76.8906 166.538 76.8906 167.972C76.8906 169.406 78.0524 170.568 79.4855 170.568Z" fill="#00D8FF"/>
<path d="M79.4842 173.918C75.8399 173.918 72.6558 173.489 70.2728 172.672C68.7272 172.145 67.4143 171.441 66.4787 170.64C65.4862 169.792 64.959 168.866 64.959 167.971C64.959 166.254 66.8405 164.574 69.9988 163.477C72.5834 162.578 75.9537 162.076 79.479 162.076C82.9423 162.076 86.266 162.562 88.8351 163.452C90.3393 163.969 91.6057 164.641 92.5051 165.386C93.4821 166.203 93.999 167.097 93.999 167.971C93.999 169.755 91.8952 171.56 88.5043 172.682C86.1058 173.479 82.9009 173.918 79.4842 173.918ZM79.4842 163.317C76.1397 163.317 72.8315 163.803 70.4124 164.646C67.5073 165.66 66.2047 167.046 66.2047 167.971C66.2047 168.933 67.6056 170.448 70.676 171.498C72.9297 172.269 75.9795 172.677 79.4842 172.677C82.7717 172.677 85.837 172.264 88.1166 171.503C91.3059 170.443 92.7636 168.928 92.7636 167.971C92.7636 167.48 92.3914 166.901 91.7143 166.337C90.9337 165.686 89.7965 165.091 88.4371 164.62C85.9921 163.782 82.8131 163.317 79.4842 163.317Z" fill="#00D8FF"/>
<path d="M73.5969 180.91C73.0696 180.91 72.6044 180.797 72.2116 180.569C70.728 179.711 70.2111 177.239 70.8366 173.955C71.3483 171.261 72.5993 168.096 74.3619 165.039C76.0936 162.04 78.1716 159.403 80.2237 157.618C81.4229 156.574 82.6377 155.808 83.7335 155.405C84.9276 154.965 85.9614 154.965 86.7161 155.4C88.2617 156.289 88.7734 159.02 88.0497 162.516C87.538 164.998 86.3181 167.992 84.6123 170.955C82.7927 174.11 80.8285 176.654 78.9314 178.314C77.7012 179.39 76.4347 180.176 75.2769 180.585C74.6721 180.802 74.1035 180.91 73.5969 180.91ZM74.8943 165.35L75.4319 165.66C73.7623 168.556 72.5269 171.664 72.0513 174.188C71.4776 177.213 72.0307 179.033 72.8267 179.493C73.0231 179.607 73.2816 179.669 73.5969 179.669C74.6255 179.669 76.2435 179.018 78.1147 177.383C79.9084 175.817 81.7848 173.376 83.5371 170.34C85.1809 167.491 86.3491 164.626 86.835 162.273C87.5121 158.978 86.928 156.962 86.0958 156.481C85.6719 156.238 84.9844 156.269 84.1574 156.574C83.2011 156.925 82.1208 157.613 81.0352 158.56C79.0865 160.256 77.0964 162.779 75.4319 165.665L74.8943 165.35Z" fill="#00D8FF"/>
<path d="M85.3717 180.926C83.9657 180.926 82.1823 180.078 80.3214 178.475C78.2435 176.686 76.1293 174.023 74.3615 170.966C72.6246 167.967 71.3841 164.849 70.862 162.175C70.557 160.613 70.5001 159.181 70.6966 158.028C70.9137 156.771 71.4254 155.876 72.1853 155.437C73.7257 154.542 76.3464 155.463 79.0137 157.836C80.9056 159.517 82.8905 162.072 84.6015 165.03C86.4262 168.184 87.6512 171.158 88.1371 173.63C88.4524 175.233 88.5041 176.722 88.2819 177.932C88.0441 179.22 87.5065 180.135 86.7311 180.585C86.3435 180.813 85.8834 180.926 85.3717 180.926ZM75.4366 170.346C77.1114 173.242 79.1894 175.864 81.133 177.534C83.4643 179.541 85.3148 179.975 86.116 179.51C86.9482 179.029 87.5582 177.058 86.9276 173.873C86.4623 171.535 85.289 168.691 83.5315 165.655C81.8825 162.806 79.9855 160.36 78.1918 158.767C75.6796 156.533 73.643 156.031 72.8107 156.512C72.3869 156.755 72.0715 157.371 71.9216 158.24C71.7511 159.243 71.8028 160.525 72.0819 161.937C72.5781 164.476 73.767 167.46 75.4366 170.346Z" fill="#00D8FF"/>
</g>
<g filter="url(#filter1_bi_0_14832)">
<rect x="83.0195" y="79" width="60" height="60" rx="30" transform="rotate(-30 83.0195 79)" fill="#F8F8F8" fill-opacity="0.01"/>
<rect x="84.0441" y="79.2745" width="58.5" height="58.5" rx="29.25" transform="rotate(-30 84.0441 79.2745)" stroke="#F8F8F8" stroke-opacity="0.1" stroke-width="1.5"/>
<g clip-path="url(#clip1_0_14832)">
<path d="M123.018 75.0081C122.953 75.0139 122.748 75.0345 122.563 75.0491C118.302 75.4332 114.311 77.732 111.783 81.2652C110.375 83.2297 109.475 85.4582 109.135 87.8185C109.015 88.6424 109 88.8858 109 90.0029C109 91.1201 109.015 91.3634 109.135 92.1874C109.95 97.82 113.959 102.552 119.396 104.306C120.37 104.62 121.396 104.834 122.563 104.963C123.018 105.012 124.982 105.012 125.437 104.963C127.452 104.74 129.158 104.241 130.842 103.382C131.1 103.25 131.15 103.215 131.114 103.186C131.091 103.168 129.991 101.693 128.672 99.9106L126.273 96.6706L123.267 92.2226C121.613 89.7772 120.252 87.7775 120.24 87.7775C120.229 87.7745 120.217 89.7508 120.211 92.1639C120.202 96.3891 120.199 96.5592 120.147 96.6588C120.07 96.8025 120.012 96.8612 119.889 96.9257C119.795 96.9726 119.713 96.9814 119.27 96.9814H118.762L118.628 96.8964C118.54 96.8406 118.475 96.7673 118.431 96.6823L118.37 96.5504L118.375 90.6715L118.384 84.7896L118.475 84.6753C118.522 84.6137 118.622 84.5345 118.692 84.4964C118.812 84.4378 118.859 84.4319 119.367 84.4319C119.965 84.4319 120.065 84.4554 120.22 84.6254C120.264 84.6723 121.891 87.1236 123.839 90.0762C125.786 93.0289 128.449 97.0606 129.757 99.0397L132.132 102.637L132.252 102.558C133.317 101.866 134.443 100.881 135.334 99.8549C137.232 97.6763 138.455 95.0198 138.865 92.1874C138.985 91.3634 139 91.1201 139 90.0029C139 88.8858 138.985 88.6424 138.865 87.8185C138.05 82.1859 134.041 77.4535 128.604 75.7001C127.645 75.3892 126.625 75.1752 125.481 75.0462C125.199 75.0169 123.261 74.9846 123.018 75.0081ZM129.158 84.0801C129.299 84.1504 129.413 84.2853 129.455 84.426C129.478 84.5023 129.484 86.1325 129.478 89.8065L129.469 95.0784L128.54 93.6534L127.607 92.2284V88.3961C127.607 85.9185 127.619 84.5257 127.636 84.4583C127.683 84.2941 127.786 84.1651 127.927 84.0889C128.047 84.0273 128.091 84.0214 128.551 84.0214C128.985 84.0214 129.062 84.0273 129.158 84.0801Z" fill="white"/>
</g>
</g>
<g filter="url(#filter2_bi_0_14832)">
<rect x="203.02" y="49" width="60" height="60" rx="30" transform="rotate(30 203.02 49)" fill="#F8F8F8" fill-opacity="0.01"/>
<rect x="203.294" y="50.0245" width="58.5" height="58.5" rx="29.25" transform="rotate(30 203.294 50.0245)" stroke="#F8F8F8" stroke-opacity="0.1" stroke-width="1.5"/>
<g clip-path="url(#clip2_0_14832)">
<path fill-rule="evenodd" clip-rule="evenodd" d="M213.98 79.8458C209.427 79.8458 206.582 82.2136 205.443 86.9491C207.151 84.5814 209.142 83.6936 211.418 84.2852C212.717 84.6227 213.646 85.6028 214.673 86.688C216.347 88.4551 218.284 90.5001 222.515 90.5001C227.067 90.5001 229.912 88.1323 231.05 83.3975C229.344 85.7653 227.352 86.653 225.076 86.0607C223.777 85.7233 222.848 84.7431 221.821 83.6586C220.147 81.8901 218.21 79.8458 213.98 79.8458ZM205.443 90.5001C200.891 90.5001 198.046 92.8679 196.908 97.6034C198.615 95.2357 200.607 94.3479 202.882 94.9395C204.182 95.277 205.11 96.2571 206.137 97.3423C207.811 99.1094 209.748 101.154 213.98 101.154C218.532 101.154 221.377 98.7873 222.515 94.0518C220.808 96.4195 218.816 97.3073 216.54 96.7157C215.241 96.3775 214.313 95.3974 213.286 94.3129C211.612 92.5458 209.674 90.5001 205.443 90.5001Z" fill="#38BDF8"/>
</g>
</g>
<g filter="url(#filter3_bi_0_14832)">
<rect x="289" y="137.923" width="60" height="60" rx="30" transform="rotate(90 289 137.923)" fill="#F8F8F8" fill-opacity="0.01"/>
<rect x="288.25" y="138.673" width="58.5" height="58.5" rx="29.25" transform="rotate(90 288.25 138.673)" stroke="#F8F8F8" stroke-opacity="0.1" stroke-width="1.5"/>
<path d="M245 159C245 156.239 247.239 154 250 154H268C270.761 154 273 156.239 273 159V177C273 179.761 270.761 182 268 182H250C247.239 182 245 179.761 245 177V159Z" fill="#F7DF1E"/>
<path d="M252.362 177.399L252.539 177.292C253.615 176.641 254.939 177.455 256.196 177.455C257.061 177.455 257.606 177.117 257.606 175.801V168.17C257.606 167.444 258.195 166.855 258.922 166.855C259.648 166.855 260.237 167.444 260.237 168.17V175.839C260.237 178.564 258.64 179.804 256.309 179.804C254.204 179.804 252.982 178.714 252.362 177.399" fill="black"/>
<path d="M262.347 178.123C261.895 177.611 262.129 176.849 262.721 176.506C263.326 176.156 264.07 176.391 264.602 176.845C265.058 177.234 265.631 177.474 266.403 177.474C267.493 177.474 268.188 176.929 268.188 176.177C268.188 175.275 267.474 174.955 266.271 174.429L265.614 174.147C263.715 173.339 262.456 172.324 262.456 170.181C262.456 168.208 263.96 166.704 266.309 166.704C267.587 166.704 268.59 167.044 269.378 167.883C269.818 168.351 269.626 169.081 269.084 169.429C268.497 169.806 267.761 169.514 267.146 169.185C266.903 169.056 266.63 168.997 266.309 168.997C265.538 168.997 265.05 169.486 265.05 170.125C265.05 170.914 265.538 171.234 266.666 171.723L267.324 172.005C269.561 172.963 270.82 173.94 270.82 176.139C270.82 178.508 268.959 179.805 266.459 179.805C264.592 179.805 263.23 179.124 262.347 178.123Z" fill="black"/>
</g>
<g filter="url(#filter4_bi_0_14832)">
<rect x="254.98" y="256.846" width="60" height="60" rx="30" transform="rotate(150 254.98 256.846)" fill="#F8F8F8" fill-opacity="0.01"/>
<rect x="253.956" y="256.571" width="58.5" height="58.5" rx="29.25" transform="rotate(150 253.956 256.571)" stroke="#F8F8F8" stroke-opacity="0.1" stroke-width="1.5"/>
<g clip-path="url(#clip3_0_14832)">
<path d="M223.8 232H204.2C201.88 232 200 233.881 200 236.2V255.8C200 258.12 201.88 260 204.2 260H223.8C226.12 260 228 258.12 228 255.8V236.2C228 233.881 226.12 232 223.8 232Z" fill="#3178C6"/>
<path d="M212.742 247.531H216.242V245.289H206.453V247.531H209.953V257.539H212.742V247.531ZM217.336 256.992C217.779 257.222 218.32 257.392 218.922 257.506C219.524 257.621 220.18 257.676 220.836 257.676C221.492 257.676 222.094 257.616 222.695 257.49C223.297 257.364 223.789 257.156 224.227 256.889C224.67 256.599 225.047 256.232 225.266 255.74C225.484 255.248 225.654 254.701 225.654 253.99C225.654 253.492 225.577 253.06 225.43 252.678C225.282 252.295 225.069 251.967 224.774 251.693C224.495 251.403 224.172 251.146 223.789 250.928C223.406 250.709 222.969 250.479 222.477 250.271C222.116 250.124 221.82 249.981 221.492 249.839C221.208 249.697 220.962 249.555 220.781 249.413C220.579 249.265 220.426 249.112 220.317 248.953C220.207 248.789 220.152 248.609 220.152 248.406C220.152 248.221 220.201 248.051 220.3 247.898C220.399 247.745 220.535 247.619 220.71 247.51C220.885 247.4 221.104 247.318 221.367 247.258C221.624 247.198 221.908 247.171 222.242 247.171C222.471 247.171 222.712 247.187 222.952 247.222C223.204 247.256 223.461 247.309 223.718 247.381C223.975 247.452 224.227 247.539 224.484 247.649C224.724 247.758 224.949 247.884 225.14 248.026V245.456C224.724 245.297 224.265 245.177 223.773 245.1C223.281 245.024 222.734 244.985 222.077 244.985C221.421 244.985 220.82 245.056 220.218 245.193C219.617 245.33 219.124 245.549 218.687 245.849C218.244 246.145 217.921 246.506 217.648 246.998C217.391 247.457 217.265 247.982 217.265 248.638C217.265 249.459 217.5 250.17 217.976 250.716C218.446 251.318 219.179 251.756 220.109 252.193C220.486 252.346 220.82 252.499 221.148 252.647C221.476 252.795 221.749 252.948 221.968 253.106C222.203 253.265 222.389 253.44 222.515 253.626C222.652 253.812 222.723 254.031 222.723 254.282C222.723 254.457 222.68 254.621 222.597 254.774C222.514 254.927 222.384 255.059 222.209 255.168C222.034 255.277 221.82 255.365 221.552 255.431C221.295 255.491 221.006 255.524 220.623 255.524C220.021 255.524 219.42 255.42 218.873 255.212C218.271 255.004 217.724 254.692 217.336 254.367V256.992Z" fill="white"/>
</g>
</g>
<g filter="url(#filter5_bi_0_14832)">
<rect x="134.98" y="286.846" width="60" height="60" rx="30" transform="rotate(-150 134.98 286.846)" fill="#F8F8F8" fill-opacity="0.01"/>
<rect x="134.706" y="285.821" width="58.5" height="58.5" rx="29.25" transform="rotate(-150 134.706 285.821)" stroke="#F8F8F8" stroke-opacity="0.1" stroke-width="1.5"/>
<g clip-path="url(#clip4_0_14832)">
<path d="M117.975 258.257L111.812 233.748L136.188 240.593" fill="white"/>
<path d="M120.984 247.722L122.524 253.853" stroke="black" stroke-width="0.52" stroke-miterlimit="10"/>
<path d="M127.066 249.445L120.984 247.722" stroke="black" stroke-width="0.52" stroke-miterlimit="10"/>
<path d="M122.525 253.853L127.067 249.445" stroke="black" stroke-width="0.52" stroke-miterlimit="10"/>
<path d="M122.525 253.853L116.443 252.131" stroke="black" stroke-width="0.52" stroke-miterlimit="10"/>
<path d="M116.443 252.131L117.983 258.265L122.525 253.853" stroke="black" stroke-width="0.52" stroke-miterlimit="10"/>
<path d="M116.443 252.13L120.985 247.722" stroke="black" stroke-width="0.52" stroke-miterlimit="10"/>
<path d="M120.984 247.723L125.53 243.311" stroke="black" stroke-width="0.52" stroke-miterlimit="10"/>
<path d="M125.531 243.311L130.073 238.903" stroke="black" stroke-width="0.52" stroke-miterlimit="10"/>
<path d="M123.992 237.18L125.532 243.31" stroke="black" stroke-width="0.52" stroke-miterlimit="10"/>
<path d="M125.531 243.311L119.445 241.593" stroke="black" stroke-width="0.52" stroke-miterlimit="10"/>
<path d="M119.445 241.593L120.985 247.723" stroke="black" stroke-width="0.52" stroke-miterlimit="10"/>
<path d="M120.986 247.722L114.904 246" stroke="black" stroke-width="0.52" stroke-miterlimit="10"/>
<path d="M114.904 246L116.444 252.13" stroke="black" stroke-width="0.52" stroke-miterlimit="10"/>
<path d="M113.363 239.869L114.903 245.999" stroke="black" stroke-width="0.52" stroke-miterlimit="10"/>
<path d="M119.445 241.592L113.363 239.869" stroke="black" stroke-width="0.52" stroke-miterlimit="10"/>
<path d="M114.904 246L119.446 241.593" stroke="black" stroke-width="0.52" stroke-miterlimit="10"/>
<path d="M119.445 241.588L123.991 237.18" stroke="black" stroke-width="0.52" stroke-miterlimit="10"/>
<path d="M123.992 237.18L117.906 235.458" stroke="black" stroke-width="0.52" stroke-miterlimit="10"/>
<path d="M117.906 235.458L119.446 241.588" stroke="black" stroke-width="0.52" stroke-miterlimit="10"/>
<path d="M113.364 239.87L111.824 233.735L117.906 235.458" stroke="black" stroke-width="0.52" stroke-miterlimit="10"/>
<path d="M113.363 239.869L117.905 235.458" stroke="black" stroke-width="0.52" stroke-miterlimit="10"/>
<path d="M131.612 245.034L136.154 240.626L130.072 238.903" stroke="black" stroke-width="0.52" stroke-miterlimit="10"/>
<path d="M130.072 238.903L131.612 245.034" stroke="black" stroke-width="0.52" stroke-miterlimit="10"/>
<path d="M131.613 245.033L125.531 243.311" stroke="black" stroke-width="0.52" stroke-miterlimit="10"/>
<path d="M125.531 243.311L127.067 249.445" stroke="black" stroke-width="0.52" stroke-miterlimit="10"/>
<path d="M127.066 249.445L131.612 245.033" stroke="black" stroke-width="0.52" stroke-miterlimit="10"/>
<path d="M130.074 238.902L123.992 237.18" stroke="black" stroke-width="0.52" stroke-miterlimit="10"/>
</g>
</g>
</g>
<g filter="url(#filter6_di_0_14832)">
<g clip-path="url(#clip5_0_14832)">
<g filter="url(#filter7_bdi_0_14832)">
<rect x="143" y="142" width="52" height="52" rx="26" fill="#F8F8F8" fill-opacity="0.01" shape-rendering="crispEdges"/>
<rect x="143" y="142" width="52" height="52" rx="26" fill="#121212" fill-opacity="0.3" shape-rendering="crispEdges"/>
<rect x="143.75" y="142.75" width="50.5" height="50.5" rx="25.25" stroke="url(#paint5_linear_0_14832)" stroke-opacity="0.25" stroke-width="1.5" shape-rendering="crispEdges"/>
</g>
</g>
<rect x="139.75" y="138.75" width="58.5" height="58.5" rx="29.25" stroke="#F8F8F8" stroke-opacity="0.4" stroke-width="1.5" shape-rendering="crispEdges"/>
</g>
<path d="M156.268 164.622C155.845 165.159 155.511 165.607 155.267 165.965C155.039 166.307 154.86 166.583 154.73 166.795C154.583 167.039 154.494 167.226 154.461 167.356C154.461 167.454 154.527 167.625 154.657 167.869C154.754 168.081 154.917 168.382 155.145 168.772C155.389 169.163 155.739 169.668 156.195 170.286C156.179 170.856 156.162 171.434 156.146 172.02C156.146 172.589 156.138 173.118 156.122 173.606C156.105 174.095 156.089 174.518 156.073 174.876C156.073 175.218 156.073 175.438 156.073 175.535C156.219 175.519 156.406 175.503 156.634 175.486C156.878 175.47 157.106 175.454 157.318 175.438C157.546 175.421 157.741 175.421 157.904 175.438C158.083 175.438 158.189 175.454 158.221 175.486C158.286 175.551 158.327 175.69 158.343 175.901C158.36 176.113 158.351 176.349 158.319 176.609C158.303 176.854 158.27 177.098 158.221 177.342C158.172 177.586 158.115 177.781 158.05 177.928C158.018 177.993 157.896 178.034 157.684 178.05C157.489 178.082 157.261 178.099 157 178.099C156.74 178.099 156.488 178.082 156.244 178.05C156.016 178.034 155.853 178.009 155.755 177.977C155.528 177.895 155.316 177.789 155.121 177.659C154.942 177.529 154.779 177.317 154.632 177.024C154.6 176.976 154.567 176.78 154.535 176.438C154.518 176.097 154.494 175.657 154.461 175.12C154.429 174.567 154.396 173.94 154.364 173.24C154.331 172.524 154.307 171.767 154.291 170.97C153.77 170.27 153.371 169.708 153.094 169.285C152.818 168.862 152.614 168.528 152.484 168.284C152.337 168.007 152.256 167.804 152.24 167.674C152.256 167.527 152.337 167.308 152.484 167.015C152.614 166.754 152.801 166.404 153.045 165.965C153.306 165.525 153.672 164.939 154.144 164.207C154.128 163.344 154.12 162.522 154.12 161.741C154.12 160.944 154.12 160.236 154.12 159.617C154.136 158.999 154.152 158.494 154.168 158.104C154.201 157.713 154.234 157.477 154.266 157.396C154.331 157.249 154.486 157.127 154.73 157.029C154.99 156.932 155.292 156.85 155.633 156.785C155.991 156.704 156.366 156.647 156.756 156.614C157.147 156.582 157.513 156.565 157.855 156.565C158.197 156.549 158.49 156.549 158.734 156.565C158.978 156.582 159.125 156.614 159.173 156.663C159.238 156.744 159.271 156.915 159.271 157.176C159.271 157.436 159.238 157.721 159.173 158.03C159.125 158.34 159.051 158.641 158.954 158.934C158.872 159.21 158.783 159.397 158.685 159.495C158.653 159.544 158.563 159.568 158.417 159.568C158.27 159.568 158.091 159.56 157.879 159.544C157.684 159.528 157.456 159.511 157.196 159.495C156.935 159.479 156.675 159.471 156.415 159.471C156.415 159.568 156.406 159.78 156.39 160.105C156.374 160.431 156.358 160.838 156.341 161.326C156.341 161.798 156.333 162.319 156.317 162.889C156.301 163.458 156.284 164.036 156.268 164.622ZM169.134 170.481C169.167 170.53 169.159 170.693 169.11 170.97C169.077 171.246 169.02 171.548 168.939 171.873C168.874 172.199 168.801 172.508 168.719 172.801C168.654 173.077 168.597 173.24 168.548 173.289H168.304C168.255 173.289 168.207 173.281 168.158 173.265C168.239 174.046 168.304 174.673 168.353 175.145C168.402 175.617 168.426 175.877 168.426 175.926C168.426 176.04 168.369 176.202 168.255 176.414C168.158 176.626 168.044 176.821 167.914 177C167.783 177.179 167.645 177.317 167.499 177.415C167.368 177.529 167.279 177.537 167.23 177.439C167.149 177.293 166.978 176.854 166.717 176.121C166.457 175.389 166.164 174.388 165.838 173.118C165.513 173.086 165.171 173.053 164.813 173.021C164.471 172.988 164.121 172.955 163.763 172.923C163.405 172.89 163.047 172.85 162.689 172.801C162.347 172.736 162.014 172.679 161.688 172.63C161.525 173.346 161.362 174.021 161.2 174.656C161.053 175.291 160.907 175.844 160.76 176.316C160.63 176.788 160.516 177.163 160.418 177.439C160.321 177.716 160.248 177.854 160.199 177.854C160.069 177.854 159.938 177.773 159.808 177.61C159.678 177.448 159.556 177.252 159.442 177.024C159.344 176.797 159.263 176.561 159.198 176.316C159.133 176.072 159.1 175.869 159.1 175.706C159.133 175.332 159.173 174.941 159.222 174.534C159.287 174.127 159.336 173.753 159.369 173.411C159.417 173.004 159.466 172.605 159.515 172.215H159.417C159.352 172.182 159.263 172.109 159.149 171.995C159.035 171.881 158.921 171.767 158.807 171.653C158.693 171.523 158.596 171.401 158.514 171.287C158.433 171.157 158.392 171.059 158.392 170.994C158.392 170.962 158.506 170.929 158.734 170.896C158.978 170.864 159.295 170.831 159.686 170.799C159.816 169.822 159.955 168.805 160.101 167.747C160.248 166.689 160.394 165.696 160.541 164.769C160.687 163.841 160.825 163.035 160.956 162.352C161.102 161.652 161.224 161.172 161.322 160.911C161.485 160.472 161.769 160.081 162.176 159.739C162.583 159.381 163.006 159.088 163.446 158.86C163.902 158.616 164.333 158.429 164.74 158.299C165.147 158.169 165.448 158.104 165.643 158.104C165.724 158.104 165.814 158.291 165.912 158.665C166.026 159.023 166.139 159.511 166.253 160.13C166.384 160.748 166.514 161.473 166.644 162.303C166.791 163.117 166.929 163.979 167.059 164.891C167.189 165.802 167.311 166.738 167.425 167.698C167.556 168.642 167.678 169.546 167.792 170.408C168.605 170.408 169.053 170.433 169.134 170.481ZM162.152 170.628C162.673 170.595 163.194 170.571 163.714 170.555C164.235 170.538 164.748 170.514 165.252 170.481C165.122 169.847 164.976 169.139 164.813 168.357C164.683 167.69 164.528 166.909 164.349 166.014C164.17 165.118 163.991 164.134 163.812 163.06C163.617 164.02 163.421 164.956 163.226 165.867C163.031 166.762 162.852 167.568 162.689 168.284C162.51 169.114 162.331 169.896 162.152 170.628ZM178.583 162.229C178.599 162.474 178.566 162.84 178.485 163.328C178.42 163.816 178.306 164.305 178.143 164.793C177.98 165.281 177.769 165.713 177.508 166.087C177.264 166.445 176.979 166.624 176.654 166.624C176.491 166.624 176.353 166.526 176.239 166.331C176.125 166.136 176.027 165.883 175.946 165.574C175.864 165.265 175.799 164.923 175.75 164.549C175.702 164.158 175.653 163.784 175.604 163.426C175.571 163.068 175.539 162.742 175.506 162.449C175.49 162.14 175.474 161.912 175.458 161.766C175.392 161.668 175.27 161.57 175.091 161.473C174.929 161.359 174.782 161.302 174.652 161.302C174.505 161.302 174.326 161.44 174.115 161.717C173.919 161.993 173.732 162.319 173.553 162.693C173.374 163.068 173.228 163.442 173.114 163.816C173 164.174 172.951 164.451 172.967 164.646C172.967 164.777 173.089 165.005 173.333 165.33C173.594 165.656 173.911 166.038 174.286 166.478C174.66 166.917 175.067 167.397 175.506 167.918C175.946 168.423 176.353 168.927 176.727 169.432C177.101 169.936 177.419 170.416 177.679 170.872C177.94 171.328 178.078 171.718 178.094 172.044C178.127 172.435 178.037 172.939 177.826 173.558C177.63 174.16 177.378 174.746 177.069 175.315C176.76 175.885 176.426 176.382 176.068 176.805C175.726 177.212 175.417 177.423 175.14 177.439C174.961 177.456 174.725 177.374 174.432 177.195C174.139 177.033 173.822 176.813 173.48 176.536C173.138 176.259 172.788 175.958 172.43 175.633C172.088 175.291 171.763 174.957 171.454 174.632C171.161 174.306 170.908 174.013 170.697 173.753C170.501 173.476 170.388 173.273 170.355 173.143C170.29 172.947 170.249 172.687 170.233 172.361C170.233 172.02 170.249 171.694 170.282 171.385C170.331 171.059 170.388 170.783 170.453 170.555C170.534 170.311 170.632 170.188 170.746 170.188C170.827 170.188 170.957 170.294 171.136 170.506C171.332 170.717 171.551 170.986 171.795 171.312C172.04 171.637 172.3 171.995 172.577 172.386C172.87 172.76 173.146 173.11 173.407 173.436C173.667 173.761 173.903 174.038 174.115 174.266C174.326 174.477 174.497 174.575 174.627 174.559C174.725 174.559 174.831 174.485 174.945 174.339C175.059 174.176 175.165 173.989 175.262 173.777C175.36 173.549 175.441 173.322 175.506 173.094C175.571 172.866 175.604 172.687 175.604 172.557C175.588 172.361 175.425 172.085 175.116 171.727C174.823 171.352 174.448 170.937 173.993 170.481C173.553 170.009 173.073 169.521 172.552 169.017C172.048 168.512 171.568 168.032 171.112 167.576C170.672 167.104 170.298 166.681 169.989 166.307C169.696 165.932 169.541 165.647 169.525 165.452C169.509 165.257 169.566 164.956 169.696 164.549C169.826 164.126 169.997 163.654 170.208 163.133C170.436 162.612 170.689 162.083 170.965 161.546C171.242 161.009 171.527 160.512 171.82 160.057C172.113 159.601 172.398 159.235 172.674 158.958C172.951 158.665 173.195 158.519 173.407 158.519C173.683 158.519 174.001 158.584 174.359 158.714C174.717 158.828 175.083 158.991 175.458 159.202C175.848 159.397 176.222 159.625 176.581 159.886C176.955 160.146 177.289 160.415 177.582 160.691C177.875 160.952 178.111 161.22 178.29 161.497C178.469 161.757 178.566 162.002 178.583 162.229ZM181.219 164.622C181.203 164.036 181.187 163.458 181.17 162.889C181.154 162.319 181.138 161.798 181.122 161.326C181.122 160.838 181.113 160.431 181.097 160.105C181.081 159.78 181.073 159.568 181.073 159.471C180.796 159.471 180.528 159.479 180.267 159.495C180.023 159.511 179.795 159.528 179.583 159.544C179.372 159.56 179.193 159.568 179.046 159.568C178.916 159.568 178.835 159.544 178.802 159.495C178.705 159.397 178.615 159.21 178.534 158.934C178.436 158.641 178.363 158.34 178.314 158.03C178.249 157.721 178.216 157.436 178.216 157.176C178.2 156.915 178.233 156.744 178.314 156.663C178.363 156.614 178.509 156.582 178.753 156.565C178.998 156.549 179.291 156.549 179.632 156.565C179.974 156.565 180.34 156.582 180.731 156.614C181.122 156.647 181.488 156.704 181.83 156.785C182.188 156.85 182.489 156.932 182.733 157.029C182.993 157.127 183.156 157.249 183.221 157.396C183.254 157.477 183.278 157.713 183.294 158.104C183.327 158.494 183.343 158.999 183.343 159.617C183.36 160.236 183.368 160.944 183.368 161.741C183.368 162.522 183.36 163.344 183.343 164.207C183.815 164.939 184.173 165.525 184.417 165.965C184.678 166.404 184.873 166.754 185.003 167.015C185.15 167.308 185.231 167.527 185.248 167.674C185.231 167.804 185.15 168.007 185.003 168.284C184.873 168.528 184.67 168.862 184.393 169.285C184.116 169.708 183.718 170.27 183.197 170.97C183.164 171.767 183.132 172.524 183.099 173.24C183.083 173.94 183.058 174.567 183.026 175.12C182.993 175.657 182.961 176.097 182.928 176.438C182.896 176.78 182.871 176.976 182.855 177.024C182.725 177.317 182.562 177.529 182.367 177.659C182.171 177.789 181.96 177.895 181.732 177.977C181.634 178.009 181.463 178.034 181.219 178.05C180.991 178.082 180.747 178.099 180.487 178.099C180.226 178.099 179.99 178.082 179.779 178.05C179.583 178.034 179.478 177.993 179.461 177.928C179.38 177.781 179.315 177.586 179.266 177.342C179.217 177.098 179.177 176.854 179.144 176.609C179.128 176.349 179.128 176.113 179.144 175.901C179.16 175.69 179.201 175.551 179.266 175.486C179.299 175.454 179.396 175.438 179.559 175.438C179.738 175.421 179.942 175.421 180.169 175.438C180.397 175.454 180.625 175.47 180.853 175.486C181.081 175.503 181.268 175.519 181.415 175.535C181.415 175.438 181.406 175.218 181.39 174.876C181.39 174.518 181.382 174.095 181.366 173.606C181.349 173.118 181.333 172.589 181.317 172.02C181.317 171.434 181.309 170.856 181.292 170.286C181.748 169.668 182.09 169.163 182.318 168.772C182.546 168.382 182.717 168.081 182.831 167.869C182.944 167.625 183.01 167.454 183.026 167.356C182.993 167.226 182.904 167.039 182.757 166.795C182.627 166.583 182.44 166.307 182.196 165.965C181.968 165.607 181.642 165.159 181.219 164.622Z" fill="#59A581"/>
</g>
<defs>
<filter id="filter0_bi_0_14832" x="-51" y="37.9229" width="260" height="260" filterUnits="userSpaceOnUse" color-interpolation-filters="sRGB">
<feFlood flood-opacity="0" result="BackgroundImageFix"/>
<feGaussianBlur in="BackgroundImageFix" stdDeviation="50"/>
<feComposite in2="SourceAlpha" operator="in" result="effect1_backgroundBlur_0_14832"/>
<feBlend mode="normal" in="SourceGraphic" in2="effect1_backgroundBlur_0_14832" result="shape"/>
<feColorMatrix in="SourceAlpha" type="matrix" values="0 0 0 0 0 0 0 0 0 0 0 0 0 0 0 0 0 0 127 0" result="hardAlpha"/>
<feOffset dx="2" dy="4"/>
<feGaussianBlur stdDeviation="8"/>
<feComposite in2="hardAlpha" operator="arithmetic" k2="-1" k3="1"/>
<feColorMatrix type="matrix" values="0 0 0 0 0.972549 0 0 0 0 0.972549 0 0 0 0 0.972549 0 0 0 0.06 0"/>
<feBlend mode="normal" in2="shape" result="effect2_innerShadow_0_14832"/>
</filter>
<filter id="filter1_bi_0_14832" x="-16.9805" y="-51" width="281.962" height="281.962" filterUnits="userSpaceOnUse" color-interpolation-filters="sRGB">
<feFlood flood-opacity="0" result="BackgroundImageFix"/>
<feGaussianBlur in="BackgroundImageFix" stdDeviation="50"/>
<feComposite in2="SourceAlpha" operator="in" result="effect1_backgroundBlur_0_14832"/>
<feBlend mode="normal" in="SourceGraphic" in2="effect1_backgroundBlur_0_14832" result="shape"/>
<feColorMatrix in="SourceAlpha" type="matrix" values="0 0 0 0 0 0 0 0 0 0 0 0 0 0 0 0 0 0 127 0" result="hardAlpha"/>
<feOffset dx="2" dy="4"/>
<feGaussianBlur stdDeviation="8"/>
<feComposite in2="hardAlpha" operator="arithmetic" k2="-1" k3="1"/>
<feColorMatrix type="matrix" values="0 0 0 0 0.972549 0 0 0 0 0.972549 0 0 0 0 0.972549 0 0 0 0.06 0"/>
<feBlend mode="normal" in2="shape" result="effect2_innerShadow_0_14832"/>
</filter>
<filter id="filter2_bi_0_14832" x="73.0195" y="-51" width="281.962" height="281.962" filterUnits="userSpaceOnUse" color-interpolation-filters="sRGB">
<feFlood flood-opacity="0" result="BackgroundImageFix"/>
<feGaussianBlur in="BackgroundImageFix" stdDeviation="50"/>
<feComposite in2="SourceAlpha" operator="in" result="effect1_backgroundBlur_0_14832"/>
<feBlend mode="normal" in="SourceGraphic" in2="effect1_backgroundBlur_0_14832" result="shape"/>
<feColorMatrix in="SourceAlpha" type="matrix" values="0 0 0 0 0 0 0 0 0 0 0 0 0 0 0 0 0 0 127 0" result="hardAlpha"/>
<feOffset dx="2" dy="4"/>
<feGaussianBlur stdDeviation="8"/>
<feComposite in2="hardAlpha" operator="arithmetic" k2="-1" k3="1"/>
<feColorMatrix type="matrix" values="0 0 0 0 0.972549 0 0 0 0 0.972549 0 0 0 0 0.972549 0 0 0 0.06 0"/>
<feBlend mode="normal" in2="shape" result="effect2_innerShadow_0_14832"/>
</filter>
<filter id="filter3_bi_0_14832" x="129" y="37.9229" width="260" height="260" filterUnits="userSpaceOnUse" color-interpolation-filters="sRGB">
<feFlood flood-opacity="0" result="BackgroundImageFix"/>
<feGaussianBlur in="BackgroundImageFix" stdDeviation="50"/>
<feComposite in2="SourceAlpha" operator="in" result="effect1_backgroundBlur_0_14832"/>
<feBlend mode="normal" in="SourceGraphic" in2="effect1_backgroundBlur_0_14832" result="shape"/>
<feColorMatrix in="SourceAlpha" type="matrix" values="0 0 0 0 0 0 0 0 0 0 0 0 0 0 0 0 0 0 127 0" result="hardAlpha"/>
<feOffset dx="2" dy="4"/>
<feGaussianBlur stdDeviation="8"/>
<feComposite in2="hardAlpha" operator="arithmetic" k2="-1" k3="1"/>
<feColorMatrix type="matrix" values="0 0 0 0 0.972549 0 0 0 0 0.972549 0 0 0 0 0.972549 0 0 0 0.06 0"/>
<feBlend mode="normal" in2="shape" result="effect2_innerShadow_0_14832"/>
</filter>
<filter id="filter4_bi_0_14832" x="73.0189" y="104.884" width="281.962" height="281.962" filterUnits="userSpaceOnUse" color-interpolation-filters="sRGB">
<feFlood flood-opacity="0" result="BackgroundImageFix"/>
<feGaussianBlur in="BackgroundImageFix" stdDeviation="50"/>
<feComposite in2="SourceAlpha" operator="in" result="effect1_backgroundBlur_0_14832"/>
<feBlend mode="normal" in="SourceGraphic" in2="effect1_backgroundBlur_0_14832" result="shape"/>
<feColorMatrix in="SourceAlpha" type="matrix" values="0 0 0 0 0 0 0 0 0 0 0 0 0 0 0 0 0 0 127 0" result="hardAlpha"/>
<feOffset dx="2" dy="4"/>
<feGaussianBlur stdDeviation="8"/>
<feComposite in2="hardAlpha" operator="arithmetic" k2="-1" k3="1"/>
<feColorMatrix type="matrix" values="0 0 0 0 0.972549 0 0 0 0 0.972549 0 0 0 0 0.972549 0 0 0 0.06 0"/>
<feBlend mode="normal" in2="shape" result="effect2_innerShadow_0_14832"/>
</filter>
<filter id="filter5_bi_0_14832" x="-16.9811" y="104.884" width="281.962" height="281.962" filterUnits="userSpaceOnUse" color-interpolation-filters="sRGB">
<feFlood flood-opacity="0" result="BackgroundImageFix"/>
<feGaussianBlur in="BackgroundImageFix" stdDeviation="50"/>
<feComposite in2="SourceAlpha" operator="in" result="effect1_backgroundBlur_0_14832"/>
<feBlend mode="normal" in="SourceGraphic" in2="effect1_backgroundBlur_0_14832" result="shape"/>
<feColorMatrix in="SourceAlpha" type="matrix" values="0 0 0 0 0 0 0 0 0 0 0 0 0 0 0 0 0 0 127 0" result="hardAlpha"/>
<feOffset dx="2" dy="4"/>
<feGaussianBlur stdDeviation="8"/>
<feComposite in2="hardAlpha" operator="arithmetic" k2="-1" k3="1"/>
<feColorMatrix type="matrix" values="0 0 0 0 0.972549 0 0 0 0 0.972549 0 0 0 0 0.972549 0 0 0 0.06 0"/>
<feBlend mode="normal" in2="shape" result="effect2_innerShadow_0_14832"/>
</filter>
<filter id="filter6_di_0_14832" x="131" y="138" width="76" height="100" filterUnits="userSpaceOnUse" color-interpolation-filters="sRGB">
<feFlood flood-opacity="0" result="BackgroundImageFix"/>
<feColorMatrix in="SourceAlpha" type="matrix" values="0 0 0 0 0 0 0 0 0 0 0 0 0 0 0 0 0 0 127 0" result="hardAlpha"/>
<feMorphology radius="16" operator="erode" in="SourceAlpha" result="effect1_dropShadow_0_14832"/>
<feOffset dy="32"/>
<feGaussianBlur stdDeviation="12"/>
<feComposite in2="hardAlpha" operator="out"/>
<feColorMatrix type="matrix" values="0 0 0 0 0 0 0 0 0 0 0 0 0 0 0 0 0 0 0.4 0"/>
<feBlend mode="multiply" in2="BackgroundImageFix" result="effect1_dropShadow_0_14832"/>
<feBlend mode="normal" in="SourceGraphic" in2="effect1_dropShadow_0_14832" result="shape"/>
<feColorMatrix in="SourceAlpha" type="matrix" values="0 0 0 0 0 0 0 0 0 0 0 0 0 0 0 0 0 0 127 0" result="hardAlpha"/>
<feOffset/>
<feGaussianBlur stdDeviation="4"/>
<feComposite in2="hardAlpha" operator="arithmetic" k2="-1" k3="1"/>
<feColorMatrix type="matrix" values="0 0 0 0 0.972549 0 0 0 0 0.972549 0 0 0 0 0.972549 0 0 0 0.25 0"/>
<feBlend mode="normal" in2="shape" result="effect2_innerShadow_0_14832"/>
</filter>
<filter id="filter7_bdi_0_14832" x="131" y="130" width="76" height="104" filterUnits="userSpaceOnUse" color-interpolation-filters="sRGB">
<feFlood flood-opacity="0" result="BackgroundImageFix"/>
<feGaussianBlur in="BackgroundImageFix" stdDeviation="6"/>
<feComposite in2="SourceAlpha" operator="in" result="effect1_backgroundBlur_0_14832"/>
<feColorMatrix in="SourceAlpha" type="matrix" values="0 0 0 0 0 0 0 0 0 0 0 0 0 0 0 0 0 0 127 0" result="hardAlpha"/>
<feMorphology radius="16" operator="erode" in="SourceAlpha" result="effect2_dropShadow_0_14832"/>
<feOffset dy="32"/>
<feGaussianBlur stdDeviation="12"/>
<feComposite in2="hardAlpha" operator="out"/>
<feColorMatrix type="matrix" values="0 0 0 0 0 0 0 0 0 0 0 0 0 0 0 0 0 0 0.4 0"/>
<feBlend mode="multiply" in2="effect1_backgroundBlur_0_14832" result="effect2_dropShadow_0_14832"/>
<feBlend mode="normal" in="SourceGraphic" in2="effect2_dropShadow_0_14832" result="shape"/>
<feColorMatrix in="SourceAlpha" type="matrix" values="0 0 0 0 0 0 0 0 0 0 0 0 0 0 0 0 0 0 127 0" result="hardAlpha"/>
<feOffset/>
<feGaussianBlur stdDeviation="4"/>
<feComposite in2="hardAlpha" operator="arithmetic" k2="-1" k3="1"/>
<feColorMatrix type="matrix" values="0 0 0 0 0.972549 0 0 0 0 0.972549 0 0 0 0 0.972549 0 0 0 0.25 0"/>
<feBlend mode="normal" in2="shape" result="effect3_innerShadow_0_14832"/>
</filter>
<radialGradient id="paint0_radial_0_14832" cx="0" cy="0" r="1" gradientUnits="userSpaceOnUse" gradientTransform="translate(169 168) rotate(90) scale(168 169)">
<stop stop-color="#D9D9D9"/>
<stop offset="1" stop-color="#737373" stop-opacity="0"/>
</radialGradient>
<radialGradient id="paint1_angular_0_14832" cx="0" cy="0" r="1" gradientUnits="userSpaceOnUse" gradientTransform="translate(170) rotate(90) scale(168)">
<stop offset="0.168962" stop-color="white" stop-opacity="0"/>
<stop offset="0.805094" stop-color="white" stop-opacity="0"/>
<stop offset="0.99975" stop-color="white" stop-opacity="0.15"/>
</radialGradient>
<radialGradient id="paint2_angular_0_14832" cx="0" cy="0" r="1" gradientUnits="userSpaceOnUse" gradientTransform="translate(170) rotate(90) scale(168)">
<stop offset="0.168962" stop-color="white" stop-opacity="0"/>
<stop offset="0.805094" stop-color="white" stop-opacity="0"/>
<stop offset="0.99975" stop-color="white" stop-opacity="0.15"/>
</radialGradient>
<radialGradient id="paint3_angular_0_14832" cx="0" cy="0" r="1" gradientUnits="userSpaceOnUse" gradientTransform="translate(170 336) rotate(90) scale(168)">
<stop offset="0.352013" stop-color="white" stop-opacity="0"/>
<stop offset="0.49798" stop-color="white" stop-opacity="0.15"/>
<stop offset="0.648457" stop-color="white" stop-opacity="0"/>
</radialGradient>
<radialGradient id="paint4_angular_0_14832" cx="0" cy="0" r="1" gradientUnits="userSpaceOnUse" gradientTransform="translate(170 336) rotate(90) scale(168)">
<stop offset="0.352013" stop-color="white" stop-opacity="0"/>
<stop offset="0.49798" stop-color="white" stop-opacity="0.15"/>
<stop offset="0.648457" stop-color="white" stop-opacity="0"/>
</radialGradient>
<linearGradient id="paint5_linear_0_14832" x1="169" y1="142" x2="191.621" y2="199.102" gradientUnits="userSpaceOnUse">
<stop stop-color="white" stop-opacity="0.4"/>
<stop offset="0.4" stop-color="white" stop-opacity="0.01"/>
<stop offset="0.6" stop-color="white" stop-opacity="0.01"/>
<stop offset="1" stop-color="white" stop-opacity="0.1"/>
</linearGradient>
<clipPath id="clip0_0_14832">
<rect width="338" height="336" rx="168" fill="white"/>
</clipPath>
<clipPath id="clip1_0_14832">
<rect width="30" height="30" fill="white" transform="translate(109 75)"/>
</clipPath>
<clipPath id="clip2_0_14832">
<rect width="32" height="32" fill="white" transform="translate(198 74)"/>
</clipPath>
<clipPath id="clip3_0_14832">
<rect width="28" height="28" fill="white" transform="translate(200 232)"/>
</clipPath>
<clipPath id="clip4_0_14832">
<rect width="26" height="26" fill="white" transform="translate(111 233)"/>
</clipPath>
<clipPath id="clip5_0_14832">
<rect x="139" y="138" width="60" height="60" rx="30" fill="white"/>
</clipPath>
</defs>
</svg>
