<svg width="360" height="272" viewBox="0 0 360 272" fill="none" xmlns="http://www.w3.org/2000/svg">
<mask id="mask0_0_14917" style="mask-type:alpha" maskUnits="userSpaceOnUse" x="0" y="-53" width="360" height="336">
<rect y="-53" width="360" height="336" fill="url(#paint0_radial_0_14917)"/>
</mask>
<g mask="url(#mask0_0_14917)">
<circle opacity="0.1" cx="179.5" cy="335.5" r="326.5" stroke="#F8F8F8" stroke-width="4" stroke-dasharray="1 24"/>
<mask id="mask1_0_14917" style="mask-type:alpha" maskUnits="userSpaceOnUse" x="-1" y="-32" width="360" height="326">
<rect x="-1" y="-32" width="360" height="326" fill="url(#paint1_linear_0_14917)"/>
</mask>
<g mask="url(#mask1_0_14917)">
<g filter="url(#filter0_bd_0_14917)">
<circle cx="-39.1724" cy="209.25" r="24" transform="rotate(-60 -39.1724 209.25)" fill="#F8F8F8" fill-opacity="0.05" style="mix-blend-mode:luminosity" shape-rendering="crispEdges"/>
<circle cx="-39.1724" cy="209.25" r="23.25" transform="rotate(-60 -39.1724 209.25)" stroke="url(#paint2_linear_0_14917)" stroke-opacity="0.25" stroke-width="1.5" shape-rendering="crispEdges"/>
</g>
<g filter="url(#filter1_bd_0_14917)">
<circle cx="0.954797" cy="156.956" r="24" transform="rotate(-45 0.954797 156.956)" fill="#F8F8F8" fill-opacity="0.05" style="mix-blend-mode:luminosity" shape-rendering="crispEdges"/>
<circle cx="0.954797" cy="156.956" r="23.25" transform="rotate(-45 0.954797 156.956)" stroke="url(#paint3_linear_0_14917)" stroke-opacity="0.25" stroke-width="1.5" shape-rendering="crispEdges"/>
</g>
<path d="M4.94354 160.235C4.56076 160.618 4.16148 160.925 3.7457 161.156C3.32992 161.374 2.91414 161.506 2.49837 161.552C2.08919 161.591 1.69651 161.549 1.32033 161.423C0.937545 161.291 0.584463 161.063 0.261079 160.74C-0.1415 160.338 -0.392287 159.895 -0.491282 159.414C-0.583678 158.925 -0.54408 158.443 -0.372488 157.968C-0.781668 158.074 -1.18095 158.077 -1.57033 157.978C-1.95971 157.879 -2.32269 157.661 -2.65927 157.325C-3.05525 156.929 -3.29284 156.5 -3.37204 156.038C-3.45123 155.563 -3.39183 155.074 -3.19384 154.573C-2.98925 154.065 -2.65267 153.576 -2.1841 153.108C-1.72212 152.646 -1.24034 152.316 -0.73877 152.118C-0.237195 151.906 0.24788 151.844 0.716457 151.93C1.19163 152.009 1.62391 152.243 2.01329 152.632C2.34987 152.969 2.57096 153.335 2.67656 153.731C2.77555 154.121 2.77555 154.517 2.67656 154.919C3.15173 154.748 3.63021 154.711 4.11198 154.81C4.60036 154.903 5.04584 155.15 5.44842 155.553C5.87739 155.982 6.14138 156.464 6.24037 156.998C6.33277 157.526 6.27007 158.071 6.05228 158.632C5.8279 159.186 5.45831 159.72 4.94354 160.235ZM4.15158 159.443C4.45517 159.14 4.67625 158.813 4.81485 158.463C4.95344 158.113 4.99964 157.77 4.95344 157.434C4.90064 157.09 4.74225 156.787 4.47826 156.523C4.20768 156.252 3.90739 156.097 3.57741 156.058C3.24083 156.011 2.90094 156.061 2.55776 156.206C2.20798 156.345 1.8813 156.566 1.57771 156.869C1.27413 157.173 1.04974 157.503 0.904547 157.859C0.759354 158.203 0.709857 158.542 0.756054 158.879C0.795652 159.209 0.950744 159.509 1.22133 159.78C1.48532 160.044 1.7889 160.202 2.13208 160.255C2.46867 160.301 2.81185 160.255 3.16163 160.116C3.51801 159.971 3.848 159.747 4.15158 159.443ZM0.795652 156.087C1.04644 155.837 1.23123 155.559 1.35002 155.256C1.47542 154.946 1.52162 154.649 1.48862 154.365C1.46222 154.074 1.33682 153.817 1.11244 153.593C0.888047 153.368 0.630661 153.236 0.340276 153.197C0.0564897 153.15 -0.237195 153.193 -0.54078 153.325C-0.844364 153.444 -1.12815 153.636 -1.39214 153.9C-1.65612 154.164 -1.85081 154.451 -1.97621 154.761C-2.1016 155.058 -2.1445 155.351 -2.1049 155.642C-2.0653 155.932 -1.93331 156.19 -1.70892 156.414C-1.47793 156.645 -1.21725 156.78 -0.92686 156.82C-0.643074 156.853 -0.352689 156.807 -0.0557045 156.681C0.24788 156.549 0.531666 156.351 0.795652 156.087Z" fill="#F8F8F8" fill-opacity="0.7"/>
<g filter="url(#filter2_bd_0_14917)">
<circle cx="53.2495" cy="116.829" r="24" transform="rotate(-30 53.2495 116.829)" fill="#F8F8F8" fill-opacity="0.05" style="mix-blend-mode:luminosity" shape-rendering="crispEdges"/>
<circle cx="53.2495" cy="116.829" r="23.25" transform="rotate(-30 53.2495 116.829)" stroke="url(#paint4_linear_0_14917)" stroke-opacity="0.25" stroke-width="1.5" shape-rendering="crispEdges"/>
</g>
<path d="M56.254 121.029C55.7852 121.3 55.3201 121.493 54.8587 121.608C54.4007 121.711 53.965 121.731 53.5514 121.668C53.1459 121.6 52.7777 121.457 52.4468 121.239C52.1112 121.012 51.8291 120.701 51.6004 120.305C51.3158 119.812 51.188 119.32 51.217 118.829C51.2542 118.333 51.4171 117.878 51.7059 117.463C51.2833 117.459 50.8968 117.359 50.5463 117.163C50.1958 116.967 49.9015 116.662 49.6635 116.25C49.3835 115.765 49.2651 115.289 49.3082 114.822C49.3546 114.343 49.5384 113.887 49.8595 113.453C50.1886 113.015 50.6401 112.631 51.214 112.299C51.7798 111.973 52.3306 111.779 52.8663 111.717C53.4055 111.643 53.8902 111.708 54.3206 111.912C54.7591 112.112 55.116 112.45 55.3914 112.927C55.6294 113.339 55.7481 113.75 55.7476 114.16C55.7425 114.562 55.64 114.944 55.4402 115.307C55.9436 115.265 56.4151 115.353 56.8549 115.574C57.3027 115.789 57.6689 116.144 57.9536 116.637C58.2569 117.162 58.3872 117.696 58.3445 118.238C58.2971 118.772 58.0956 119.281 57.7401 119.767C57.3798 120.244 56.8845 120.665 56.254 121.029ZM55.694 120.059C56.0658 119.844 56.3639 119.586 56.5883 119.284C56.8127 118.982 56.9462 118.663 56.9887 118.325C57.0265 117.98 56.9521 117.646 56.7654 117.323C56.5741 116.991 56.3242 116.764 56.0157 116.64C55.7025 116.508 55.3614 116.468 54.9923 116.52C54.6186 116.563 54.2458 116.692 53.874 116.907C53.5022 117.121 53.2001 117.382 52.9676 117.689C52.7385 117.983 52.6027 118.298 52.5602 118.635C52.5131 118.964 52.5852 119.294 52.7765 119.626C52.9632 119.949 53.2154 120.181 53.5332 120.32C53.8464 120.452 54.1898 120.496 54.5636 120.453C54.9454 120.405 55.3222 120.274 55.694 120.059ZM53.321 115.949C53.6282 115.772 53.8784 115.552 54.0717 115.289C54.2731 115.022 54.3946 114.747 54.4362 114.464C54.4858 114.177 54.4313 113.896 54.2727 113.621C54.114 113.346 53.8996 113.152 53.6293 113.039C53.3672 112.921 53.0724 112.886 52.745 112.935C52.421 112.971 52.0973 113.083 51.774 113.269C51.4507 113.456 51.1883 113.683 50.9869 113.95C50.789 114.205 50.6715 114.477 50.6346 114.768C50.5977 115.059 50.6586 115.341 50.8172 115.616C50.9806 115.899 51.1974 116.097 51.4676 116.211C51.7332 116.316 52.0256 116.347 52.3449 116.302C52.6723 116.253 52.9977 116.136 53.321 115.949Z" fill="#F8F8F8" fill-opacity="0.7"/>
<g filter="url(#filter3_bd_0_14917)">
<circle cx="114.148" cy="91.6034" r="24" transform="rotate(-15 114.148 91.6034)" fill="#F8F8F8" fill-opacity="0.05" style="mix-blend-mode:luminosity" shape-rendering="crispEdges"/>
<circle cx="114.148" cy="91.6034" r="23.25" transform="rotate(-15 114.148 91.6034)" stroke="url(#paint5_linear_0_14917)" stroke-opacity="0.25" stroke-width="1.5" shape-rendering="crispEdges"/>
</g>
<path d="M113.99 96.822C113.909 96.8438 113.834 96.8348 113.765 96.7952C113.703 96.7442 113.661 96.6781 113.639 96.597C113.632 96.5699 113.63 96.5269 113.634 96.468L114.892 87.6954L110.457 88.8839C110.367 88.9081 110.283 88.9016 110.205 88.8644C110.134 88.8158 110.087 88.7464 110.062 88.6562L109.917 88.1153C109.891 88.0161 109.897 87.9323 109.937 87.8637C109.983 87.7837 110.051 87.7316 110.141 87.7074L115.686 86.2218C115.794 86.1928 115.884 86.2026 115.955 86.2512C116.023 86.2908 116.071 86.3602 116.097 86.4594L116.231 86.9597C116.263 87.0769 116.279 87.174 116.281 87.251C116.282 87.3279 116.277 87.4163 116.265 87.5161L115.021 96.1832C115.005 96.265 114.976 96.3549 114.934 96.4529C114.9 96.5396 114.828 96.5974 114.72 96.6263L113.99 96.822Z" fill="#F8F8F8" fill-opacity="0.7"/>
<g filter="url(#filter4_bi_0_14917)">
<g clip-path="url(#clip0_0_14917)">
<rect x="154" y="37" width="52" height="92" rx="26" fill="url(#paint6_linear_0_14917)" fill-opacity="0.05"/>
<g filter="url(#filter5_bd_0_14917)">
<rect x="158" y="41" width="44" height="84" rx="22" fill="#F8F8F8" fill-opacity="0.05" style="mix-blend-mode:luminosity" shape-rendering="crispEdges"/>
<rect x="158.75" y="41.75" width="42.5" height="82.5" rx="21.25" stroke="url(#paint7_linear_0_14917)" stroke-opacity="0.25" stroke-width="1.5" shape-rendering="crispEdges"/>
<path d="M180.002 88.16C179.383 88.16 178.813 88.0853 178.29 87.936C177.778 87.776 177.335 87.5467 176.962 87.248C176.599 86.9493 176.317 86.5973 176.114 86.192C175.911 85.776 175.81 85.3067 175.81 84.784C175.81 84.1333 175.965 83.5733 176.274 83.104C176.594 82.6347 177.015 82.2773 177.538 82.032C177.122 81.7867 176.797 81.4667 176.562 81.072C176.327 80.6773 176.21 80.208 176.21 79.664C176.21 79.024 176.365 78.4853 176.674 78.048C176.994 77.6 177.437 77.2533 178.002 77.008C178.578 76.7627 179.245 76.64 180.002 76.64C180.749 76.64 181.405 76.7627 181.97 77.008C182.546 77.2427 182.989 77.584 183.298 78.032C183.618 78.48 183.778 79.0187 183.778 79.648C183.778 80.192 183.661 80.6667 183.426 81.072C183.191 81.4667 182.871 81.7867 182.466 82.032C182.989 82.2773 183.405 82.6347 183.714 83.104C184.034 83.5733 184.194 84.1333 184.194 84.784C184.194 85.4773 184.018 86.08 183.666 86.592C183.314 87.0933 182.823 87.4827 182.194 87.76C181.565 88.0267 180.834 88.16 180.002 88.16ZM180.002 86.88C180.493 86.88 180.935 86.7947 181.33 86.624C181.725 86.4533 182.039 86.2133 182.274 85.904C182.509 85.584 182.626 85.2107 182.626 84.784C182.626 84.3467 182.509 83.9787 182.274 83.68C182.039 83.3707 181.725 83.136 181.33 82.976C180.935 82.8053 180.493 82.72 180.002 82.72C179.511 82.72 179.063 82.8053 178.658 82.976C178.263 83.136 177.949 83.3707 177.714 83.68C177.479 83.9787 177.362 84.3467 177.362 84.784C177.362 85.2107 177.479 85.584 177.714 85.904C177.949 86.2133 178.263 86.4533 178.658 86.624C179.063 86.7947 179.511 86.88 180.002 86.88ZM180.002 81.456C180.407 81.456 180.781 81.3813 181.122 81.232C181.474 81.0827 181.751 80.88 181.954 80.624C182.167 80.368 182.274 80.0587 182.274 79.696C182.274 79.3333 182.173 79.0187 181.97 78.752C181.778 78.4853 181.506 78.2827 181.154 78.144C180.813 77.9947 180.429 77.92 180.002 77.92C179.575 77.92 179.186 77.9947 178.834 78.144C178.493 78.2827 178.221 78.4853 178.018 78.752C177.815 79.0187 177.714 79.3333 177.714 79.696C177.714 80.0693 177.815 80.3893 178.018 80.656C178.221 80.912 178.493 81.1093 178.834 81.248C179.186 81.3867 179.575 81.456 180.002 81.456Z" fill="#F8F8F8" fill-opacity="0.95"/>
</g>
</g>
<rect x="154.75" y="37.75" width="50.5" height="90.5" rx="25.25" stroke="white" stroke-opacity="0.4" stroke-width="1.5"/>
</g>
<g filter="url(#filter6_bd_0_14917)">
<circle cx="244.851" cy="91.6033" r="24" transform="rotate(15 244.851 91.6033)" fill="#F8F8F8" fill-opacity="0.05" style="mix-blend-mode:luminosity" shape-rendering="crispEdges"/>
<circle cx="244.851" cy="91.6033" r="23.25" transform="rotate(15 244.851 91.6033)" stroke="url(#paint8_linear_0_14917)" stroke-opacity="0.25" stroke-width="1.5" shape-rendering="crispEdges"/>
</g>
<path d="M242.642 96.1878C242.561 96.166 242.501 96.1209 242.461 96.0523C242.433 95.9771 242.43 95.8989 242.452 95.8178C242.464 95.7727 242.478 95.7379 242.494 95.7132C242.52 95.691 242.539 95.6721 242.553 95.6565L245.394 93.3305C245.154 93.3242 244.903 93.286 244.642 93.216C244.148 93.0741 243.722 92.8631 243.362 92.5832C243.011 92.3056 242.735 91.9851 242.532 91.6217C242.333 91.2493 242.21 90.859 242.165 90.4507C242.12 90.0424 242.152 89.6355 242.26 89.2298C242.367 88.8331 242.538 88.4636 242.775 88.1211C243.02 87.7812 243.324 87.4953 243.686 87.2637C244.056 87.0345 244.478 86.8865 244.95 86.8197C245.433 86.7463 245.959 86.7858 246.527 86.9379C247.095 87.0901 247.566 87.3131 247.942 87.607C248.329 87.8942 248.625 88.2298 248.832 88.6136C249.049 88.9908 249.175 89.3868 249.209 89.8017C249.252 90.219 249.219 90.6305 249.11 91.0362C249.011 91.4058 248.866 91.7294 248.676 92.0069C248.486 92.2845 248.281 92.5244 248.063 92.7268C247.853 92.9315 247.653 93.1195 247.463 93.2906L243.878 96.2289C243.83 96.2643 243.764 96.3097 243.682 96.3649C243.602 96.4111 243.499 96.4173 243.373 96.3834L242.642 96.1878ZM245.125 92.1713C245.503 92.2728 245.872 92.2846 246.231 92.2069C246.602 92.1226 246.921 91.957 247.19 91.7103C247.462 91.4545 247.654 91.1147 247.768 90.691C247.881 90.2673 247.883 89.8813 247.774 89.5331C247.666 89.1758 247.472 88.8726 247.191 88.6233C246.922 88.3675 246.597 88.1889 246.219 88.0874C245.849 87.9884 245.484 87.9822 245.122 88.0689C244.763 88.1467 244.448 88.3134 244.177 88.5692C243.908 88.816 243.716 89.1513 243.603 89.575C243.489 89.9987 243.486 90.3892 243.593 90.7464C243.703 91.0947 243.892 91.3967 244.162 91.6525C244.434 91.8994 244.755 92.0723 245.125 92.1713Z" fill="#F8F8F8" fill-opacity="0.7"/>
<g filter="url(#filter7_bd_0_14917)">
<circle cx="305.749" cy="116.829" r="24" transform="rotate(30 305.749 116.829)" fill="#F8F8F8" fill-opacity="0.05" style="mix-blend-mode:luminosity" shape-rendering="crispEdges"/>
<circle cx="305.749" cy="116.829" r="23.25" transform="rotate(30 305.749 116.829)" stroke="url(#paint9_linear_0_14917)" stroke-opacity="0.25" stroke-width="1.5" shape-rendering="crispEdges"/>
</g>
<path d="M300.588 119.622C300.507 119.575 300.452 119.511 300.424 119.43C300.408 119.346 300.423 119.263 300.47 119.182L304.39 112.392L301.481 112.782C301.389 112.793 301.308 112.774 301.24 112.724C301.172 112.674 301.132 112.602 301.121 112.51L301.037 111.928C301.03 111.827 301.052 111.743 301.102 111.674C301.161 111.611 301.236 111.574 301.329 111.563L305.148 111.052C305.228 111.044 305.294 111.05 305.347 111.07C305.401 111.09 305.455 111.116 305.512 111.149L306.13 111.506C306.211 111.553 306.259 111.618 306.275 111.703C306.304 111.784 306.295 111.865 306.248 111.946L301.67 119.875C301.623 119.956 301.556 120.008 301.466 120.032C301.39 120.053 301.311 120.04 301.23 119.993L300.588 119.622ZM306.201 123.024C305.643 122.702 305.219 122.344 304.929 121.951C304.652 121.554 304.481 121.131 304.416 120.684C304.351 120.237 304.376 119.783 304.491 119.321C304.615 118.865 304.797 118.409 305.037 117.955C305.155 117.733 305.28 117.498 305.412 117.25C305.552 117.008 305.694 116.761 305.839 116.511C305.992 116.265 306.138 116.031 306.276 115.809C306.541 115.37 306.844 114.984 307.186 114.654C307.536 114.327 307.919 114.085 308.334 113.926C308.754 113.759 309.202 113.7 309.68 113.749C310.171 113.796 310.691 113.977 311.241 114.295C311.799 114.617 312.216 114.976 312.493 115.373C312.783 115.767 312.961 116.188 313.026 116.635C313.096 117.074 313.073 117.524 312.957 117.986C312.85 118.452 312.672 118.909 312.423 119.358C312.301 119.589 312.167 119.83 312.023 120.081C311.886 120.336 311.744 120.583 311.596 120.82C311.456 121.063 311.318 121.291 311.184 121.504C310.92 121.944 310.612 122.327 310.262 122.653C309.921 122.984 309.54 123.233 309.12 123.4C308.708 123.572 308.257 123.635 307.766 123.589C307.288 123.539 306.767 123.351 306.201 123.024ZM306.803 121.982C307.433 122.346 308.017 122.408 308.554 122.168C309.099 121.933 309.584 121.459 310.007 120.744C310.158 120.519 310.297 120.297 310.423 120.079C310.554 119.853 310.682 119.63 310.808 119.412C310.939 119.186 311.059 118.959 311.169 118.731C311.567 118.023 311.734 117.371 311.669 116.773C311.617 116.172 311.276 115.689 310.646 115.325C310.023 114.966 309.435 114.912 308.881 115.163C308.339 115.411 307.857 115.881 307.435 116.575C307.309 116.793 307.176 117.013 307.038 117.235C306.912 117.453 306.783 117.676 306.653 117.902C306.535 118.125 306.408 118.353 306.273 118.588C305.873 119.317 305.708 119.976 305.778 120.565C305.847 121.155 306.189 121.627 306.803 121.982Z" fill="#F8F8F8" fill-opacity="0.7"/>
<g filter="url(#filter8_bd_0_14917)">
<circle cx="358.045" cy="156.956" r="24" transform="rotate(45 358.045 156.956)" fill="#F8F8F8" fill-opacity="0.05" style="mix-blend-mode:luminosity" shape-rendering="crispEdges"/>
<circle cx="358.045" cy="156.956" r="23.25" transform="rotate(45 358.045 156.956)" stroke="url(#paint10_linear_0_14917)" stroke-opacity="0.25" stroke-width="1.5" shape-rendering="crispEdges"/>
</g>
<path d="M354.765 160.945C354.382 160.562 354.075 160.163 353.844 159.747C353.626 159.332 353.494 158.916 353.448 158.5C353.409 158.091 353.451 157.698 353.577 157.322C353.709 156.939 353.937 156.586 354.26 156.263C354.662 155.86 355.105 155.609 355.586 155.51C356.075 155.418 356.557 155.458 357.032 155.629C356.926 155.22 356.923 154.821 357.022 154.431C357.121 154.042 357.339 153.679 357.675 153.342C358.071 152.946 358.5 152.709 358.962 152.63C359.437 152.55 359.926 152.61 360.427 152.808C360.935 153.012 361.424 153.349 361.892 153.817C362.354 154.279 362.684 154.761 362.882 155.263C363.094 155.764 363.156 156.249 363.07 156.718C362.991 157.193 362.757 157.625 362.368 158.015C362.031 158.351 361.665 158.573 361.269 158.678C360.879 158.777 360.483 158.777 360.081 158.678C360.252 159.153 360.289 159.632 360.19 160.114C360.097 160.602 359.85 161.047 359.447 161.45C359.018 161.879 358.536 162.143 358.002 162.242C357.474 162.334 356.929 162.272 356.368 162.054C355.814 161.829 355.28 161.46 354.765 160.945ZM355.557 160.153C355.86 160.457 356.187 160.678 356.537 160.816C356.887 160.955 357.23 161.001 357.566 160.955C357.91 160.902 358.213 160.744 358.477 160.48C358.748 160.209 358.903 159.909 358.942 159.579C358.989 159.242 358.939 158.903 358.794 158.559C358.655 158.21 358.434 157.883 358.131 157.579C357.827 157.276 357.497 157.051 357.141 156.906C356.797 156.761 356.458 156.711 356.121 156.758C355.791 156.797 355.491 156.952 355.22 157.223C354.956 157.487 354.798 157.79 354.745 158.134C354.699 158.47 354.745 158.813 354.884 159.163C355.029 159.52 355.253 159.85 355.557 160.153ZM358.913 156.797C359.163 157.048 359.441 157.233 359.744 157.352C360.054 157.477 360.351 157.523 360.635 157.49C360.926 157.464 361.183 157.338 361.407 157.114C361.632 156.89 361.764 156.632 361.803 156.342C361.85 156.058 361.807 155.764 361.675 155.461C361.556 155.157 361.364 154.873 361.1 154.609C360.836 154.345 360.549 154.151 360.239 154.025C359.942 153.9 359.649 153.857 359.358 153.897C359.068 153.936 358.81 154.068 358.586 154.293C358.355 154.524 358.22 154.784 358.18 155.075C358.147 155.359 358.193 155.649 358.319 155.946C358.451 156.249 358.649 156.533 358.913 156.797Z" fill="#F8F8F8" fill-opacity="0.7"/>
<g filter="url(#filter9_bd_0_14917)">
<circle cx="398.172" cy="209.25" r="24" transform="rotate(60 398.172 209.25)" fill="#F8F8F8" fill-opacity="0.05" style="mix-blend-mode:luminosity" shape-rendering="crispEdges"/>
<circle cx="398.172" cy="209.25" r="23.25" transform="rotate(60 398.172 209.25)" stroke="url(#paint11_linear_0_14917)" stroke-opacity="0.25" stroke-width="1.5" shape-rendering="crispEdges"/>
</g>
</g>
</g>
<defs>
<filter id="filter0_bd_0_14917" x="-95.1764" y="153.246" width="112.008" height="128.008" filterUnits="userSpaceOnUse" color-interpolation-filters="sRGB">
<feFlood flood-opacity="0" result="BackgroundImageFix"/>
<feGaussianBlur in="BackgroundImageFix" stdDeviation="16"/>
<feComposite in2="SourceAlpha" operator="in" result="effect1_backgroundBlur_0_14917"/>
<feColorMatrix in="SourceAlpha" type="matrix" values="0 0 0 0 0 0 0 0 0 0 0 0 0 0 0 0 0 0 127 0" result="hardAlpha"/>
<feOffset dy="24"/>
<feGaussianBlur stdDeviation="12"/>
<feComposite in2="hardAlpha" operator="out"/>
<feColorMatrix type="matrix" values="0 0 0 0 0 0 0 0 0 0 0 0 0 0 0 0 0 0 0.3 0"/>
<feBlend mode="multiply" in2="effect1_backgroundBlur_0_14917" result="effect2_dropShadow_0_14917"/>
<feBlend mode="normal" in="SourceGraphic" in2="effect2_dropShadow_0_14917" result="shape"/>
</filter>
<filter id="filter1_bd_0_14917" x="-55.0452" y="100.956" width="112" height="128" filterUnits="userSpaceOnUse" color-interpolation-filters="sRGB">
<feFlood flood-opacity="0" result="BackgroundImageFix"/>
<feGaussianBlur in="BackgroundImageFix" stdDeviation="16"/>
<feComposite in2="SourceAlpha" operator="in" result="effect1_backgroundBlur_0_14917"/>
<feColorMatrix in="SourceAlpha" type="matrix" values="0 0 0 0 0 0 0 0 0 0 0 0 0 0 0 0 0 0 127 0" result="hardAlpha"/>
<feOffset dy="24"/>
<feGaussianBlur stdDeviation="12"/>
<feComposite in2="hardAlpha" operator="out"/>
<feColorMatrix type="matrix" values="0 0 0 0 0 0 0 0 0 0 0 0 0 0 0 0 0 0 0.3 0"/>
<feBlend mode="multiply" in2="effect1_backgroundBlur_0_14917" result="effect2_dropShadow_0_14917"/>
<feBlend mode="normal" in="SourceGraphic" in2="effect2_dropShadow_0_14917" result="shape"/>
</filter>
<filter id="filter2_bd_0_14917" x="-2.75455" y="60.8245" width="112.008" height="128.008" filterUnits="userSpaceOnUse" color-interpolation-filters="sRGB">
<feFlood flood-opacity="0" result="BackgroundImageFix"/>
<feGaussianBlur in="BackgroundImageFix" stdDeviation="16"/>
<feComposite in2="SourceAlpha" operator="in" result="effect1_backgroundBlur_0_14917"/>
<feColorMatrix in="SourceAlpha" type="matrix" values="0 0 0 0 0 0 0 0 0 0 0 0 0 0 0 0 0 0 127 0" result="hardAlpha"/>
<feOffset dy="24"/>
<feGaussianBlur stdDeviation="12"/>
<feComposite in2="hardAlpha" operator="out"/>
<feColorMatrix type="matrix" values="0 0 0 0 0 0 0 0 0 0 0 0 0 0 0 0 0 0 0.3 0"/>
<feBlend mode="multiply" in2="effect1_backgroundBlur_0_14917" result="effect2_dropShadow_0_14917"/>
<feBlend mode="normal" in="SourceGraphic" in2="effect2_dropShadow_0_14917" result="shape"/>
</filter>
<filter id="filter3_bd_0_14917" x="58.1418" y="35.5974" width="112.012" height="128.012" filterUnits="userSpaceOnUse" color-interpolation-filters="sRGB">
<feFlood flood-opacity="0" result="BackgroundImageFix"/>
<feGaussianBlur in="BackgroundImageFix" stdDeviation="16"/>
<feComposite in2="SourceAlpha" operator="in" result="effect1_backgroundBlur_0_14917"/>
<feColorMatrix in="SourceAlpha" type="matrix" values="0 0 0 0 0 0 0 0 0 0 0 0 0 0 0 0 0 0 127 0" result="hardAlpha"/>
<feOffset dy="24"/>
<feGaussianBlur stdDeviation="12"/>
<feComposite in2="hardAlpha" operator="out"/>
<feColorMatrix type="matrix" values="0 0 0 0 0 0 0 0 0 0 0 0 0 0 0 0 0 0 0.3 0"/>
<feBlend mode="multiply" in2="effect1_backgroundBlur_0_14917" result="effect2_dropShadow_0_14917"/>
<feBlend mode="normal" in="SourceGraphic" in2="effect2_dropShadow_0_14917" result="shape"/>
</filter>
<filter id="filter4_bi_0_14917" x="54" y="-63" width="252" height="292" filterUnits="userSpaceOnUse" color-interpolation-filters="sRGB">
<feFlood flood-opacity="0" result="BackgroundImageFix"/>
<feGaussianBlur in="BackgroundImageFix" stdDeviation="50"/>
<feComposite in2="SourceAlpha" operator="in" result="effect1_backgroundBlur_0_14917"/>
<feBlend mode="normal" in="SourceGraphic" in2="effect1_backgroundBlur_0_14917" result="shape"/>
<feColorMatrix in="SourceAlpha" type="matrix" values="0 0 0 0 0 0 0 0 0 0 0 0 0 0 0 0 0 0 127 0" result="hardAlpha"/>
<feOffset dx="2" dy="4"/>
<feGaussianBlur stdDeviation="8"/>
<feComposite in2="hardAlpha" operator="arithmetic" k2="-1" k3="1"/>
<feColorMatrix type="matrix" values="0 0 0 0 0.972549 0 0 0 0 0.972549 0 0 0 0 0.972549 0 0 0 0.06 0"/>
<feBlend mode="normal" in2="shape" result="effect2_innerShadow_0_14917"/>
</filter>
<filter id="filter5_bd_0_14917" x="126" y="9" width="108" height="164" filterUnits="userSpaceOnUse" color-interpolation-filters="sRGB">
<feFlood flood-opacity="0" result="BackgroundImageFix"/>
<feGaussianBlur in="BackgroundImageFix" stdDeviation="16"/>
<feComposite in2="SourceAlpha" operator="in" result="effect1_backgroundBlur_0_14917"/>
<feColorMatrix in="SourceAlpha" type="matrix" values="0 0 0 0 0 0 0 0 0 0 0 0 0 0 0 0 0 0 127 0" result="hardAlpha"/>
<feOffset dy="24"/>
<feGaussianBlur stdDeviation="12"/>
<feComposite in2="hardAlpha" operator="out"/>
<feColorMatrix type="matrix" values="0 0 0 0 0 0 0 0 0 0 0 0 0 0 0 0 0 0 0.3 0"/>
<feBlend mode="multiply" in2="effect1_backgroundBlur_0_14917" result="effect2_dropShadow_0_14917"/>
<feBlend mode="normal" in="SourceGraphic" in2="effect2_dropShadow_0_14917" result="shape"/>
</filter>
<filter id="filter6_bd_0_14917" x="188.845" y="35.5974" width="112.012" height="128.012" filterUnits="userSpaceOnUse" color-interpolation-filters="sRGB">
<feFlood flood-opacity="0" result="BackgroundImageFix"/>
<feGaussianBlur in="BackgroundImageFix" stdDeviation="16"/>
<feComposite in2="SourceAlpha" operator="in" result="effect1_backgroundBlur_0_14917"/>
<feColorMatrix in="SourceAlpha" type="matrix" values="0 0 0 0 0 0 0 0 0 0 0 0 0 0 0 0 0 0 127 0" result="hardAlpha"/>
<feOffset dy="24"/>
<feGaussianBlur stdDeviation="12"/>
<feComposite in2="hardAlpha" operator="out"/>
<feColorMatrix type="matrix" values="0 0 0 0 0 0 0 0 0 0 0 0 0 0 0 0 0 0 0.3 0"/>
<feBlend mode="multiply" in2="effect1_backgroundBlur_0_14917" result="effect2_dropShadow_0_14917"/>
<feBlend mode="normal" in="SourceGraphic" in2="effect2_dropShadow_0_14917" result="shape"/>
</filter>
<filter id="filter7_bd_0_14917" x="249.745" y="60.8245" width="112.008" height="128.008" filterUnits="userSpaceOnUse" color-interpolation-filters="sRGB">
<feFlood flood-opacity="0" result="BackgroundImageFix"/>
<feGaussianBlur in="BackgroundImageFix" stdDeviation="16"/>
<feComposite in2="SourceAlpha" operator="in" result="effect1_backgroundBlur_0_14917"/>
<feColorMatrix in="SourceAlpha" type="matrix" values="0 0 0 0 0 0 0 0 0 0 0 0 0 0 0 0 0 0 127 0" result="hardAlpha"/>
<feOffset dy="24"/>
<feGaussianBlur stdDeviation="12"/>
<feComposite in2="hardAlpha" operator="out"/>
<feColorMatrix type="matrix" values="0 0 0 0 0 0 0 0 0 0 0 0 0 0 0 0 0 0 0.3 0"/>
<feBlend mode="multiply" in2="effect1_backgroundBlur_0_14917" result="effect2_dropShadow_0_14917"/>
<feBlend mode="normal" in="SourceGraphic" in2="effect2_dropShadow_0_14917" result="shape"/>
</filter>
<filter id="filter8_bd_0_14917" x="302.045" y="100.956" width="112" height="128" filterUnits="userSpaceOnUse" color-interpolation-filters="sRGB">
<feFlood flood-opacity="0" result="BackgroundImageFix"/>
<feGaussianBlur in="BackgroundImageFix" stdDeviation="16"/>
<feComposite in2="SourceAlpha" operator="in" result="effect1_backgroundBlur_0_14917"/>
<feColorMatrix in="SourceAlpha" type="matrix" values="0 0 0 0 0 0 0 0 0 0 0 0 0 0 0 0 0 0 127 0" result="hardAlpha"/>
<feOffset dy="24"/>
<feGaussianBlur stdDeviation="12"/>
<feComposite in2="hardAlpha" operator="out"/>
<feColorMatrix type="matrix" values="0 0 0 0 0 0 0 0 0 0 0 0 0 0 0 0 0 0 0.3 0"/>
<feBlend mode="multiply" in2="effect1_backgroundBlur_0_14917" result="effect2_dropShadow_0_14917"/>
<feBlend mode="normal" in="SourceGraphic" in2="effect2_dropShadow_0_14917" result="shape"/>
</filter>
<filter id="filter9_bd_0_14917" x="342.168" y="153.246" width="112.008" height="128.008" filterUnits="userSpaceOnUse" color-interpolation-filters="sRGB">
<feFlood flood-opacity="0" result="BackgroundImageFix"/>
<feGaussianBlur in="BackgroundImageFix" stdDeviation="16"/>
<feComposite in2="SourceAlpha" operator="in" result="effect1_backgroundBlur_0_14917"/>
<feColorMatrix in="SourceAlpha" type="matrix" values="0 0 0 0 0 0 0 0 0 0 0 0 0 0 0 0 0 0 127 0" result="hardAlpha"/>
<feOffset dy="24"/>
<feGaussianBlur stdDeviation="12"/>
<feComposite in2="hardAlpha" operator="out"/>
<feColorMatrix type="matrix" values="0 0 0 0 0 0 0 0 0 0 0 0 0 0 0 0 0 0 0.3 0"/>
<feBlend mode="multiply" in2="effect1_backgroundBlur_0_14917" result="effect2_dropShadow_0_14917"/>
<feBlend mode="normal" in="SourceGraphic" in2="effect2_dropShadow_0_14917" result="shape"/>
</filter>
<radialGradient id="paint0_radial_0_14917" cx="0" cy="0" r="1" gradientUnits="userSpaceOnUse" gradientTransform="translate(180 115) rotate(90) scale(226 242.143)">
<stop offset="0.344441" stop-color="#D9D9D9"/>
<stop offset="1" stop-color="#737373" stop-opacity="0"/>
</radialGradient>
<linearGradient id="paint1_linear_0_14917" x1="359" y1="131" x2="-1" y2="131" gradientUnits="userSpaceOnUse">
<stop stop-opacity="0"/>
<stop offset="0.15"/>
<stop offset="0.85"/>
<stop offset="1" stop-opacity="0"/>
</linearGradient>
<linearGradient id="paint2_linear_0_14917" x1="-39.1724" y1="185.25" x2="-18.2915" y2="237.96" gradientUnits="userSpaceOnUse">
<stop stop-color="white" stop-opacity="0.4"/>
<stop offset="0.4" stop-color="white" stop-opacity="0.01"/>
<stop offset="0.6" stop-color="white" stop-opacity="0.01"/>
<stop offset="1" stop-color="white" stop-opacity="0.1"/>
</linearGradient>
<linearGradient id="paint3_linear_0_14917" x1="0.954799" y1="132.956" x2="21.8357" y2="185.665" gradientUnits="userSpaceOnUse">
<stop stop-color="white" stop-opacity="0.4"/>
<stop offset="0.4" stop-color="white" stop-opacity="0.01"/>
<stop offset="0.6" stop-color="white" stop-opacity="0.01"/>
<stop offset="1" stop-color="white" stop-opacity="0.1"/>
</linearGradient>
<linearGradient id="paint4_linear_0_14917" x1="53.2495" y1="92.8286" x2="74.1304" y2="145.538" gradientUnits="userSpaceOnUse">
<stop stop-color="white" stop-opacity="0.4"/>
<stop offset="0.4" stop-color="white" stop-opacity="0.01"/>
<stop offset="0.6" stop-color="white" stop-opacity="0.01"/>
<stop offset="1" stop-color="white" stop-opacity="0.1"/>
</linearGradient>
<linearGradient id="paint5_linear_0_14917" x1="114.148" y1="67.6034" x2="135.029" y2="120.313" gradientUnits="userSpaceOnUse">
<stop stop-color="white" stop-opacity="0.4"/>
<stop offset="0.4" stop-color="white" stop-opacity="0.01"/>
<stop offset="0.6" stop-color="white" stop-opacity="0.01"/>
<stop offset="1" stop-color="white" stop-opacity="0.1"/>
</linearGradient>
<linearGradient id="paint6_linear_0_14917" x1="180" y1="37" x2="180" y2="129" gradientUnits="userSpaceOnUse">
<stop stop-color="white" stop-opacity="0"/>
<stop offset="1" stop-color="white" stop-opacity="0.05"/>
</linearGradient>
<linearGradient id="paint7_linear_0_14917" x1="180" y1="41" x2="231.343" y2="108.888" gradientUnits="userSpaceOnUse">
<stop stop-color="white" stop-opacity="0.4"/>
<stop offset="0.4" stop-color="white" stop-opacity="0.01"/>
<stop offset="0.6" stop-color="white" stop-opacity="0.01"/>
<stop offset="1" stop-color="white" stop-opacity="0.1"/>
</linearGradient>
<linearGradient id="paint8_linear_0_14917" x1="244.851" y1="67.6033" x2="265.732" y2="120.313" gradientUnits="userSpaceOnUse">
<stop stop-color="white" stop-opacity="0.4"/>
<stop offset="0.4" stop-color="white" stop-opacity="0.01"/>
<stop offset="0.6" stop-color="white" stop-opacity="0.01"/>
<stop offset="1" stop-color="white" stop-opacity="0.1"/>
</linearGradient>
<linearGradient id="paint9_linear_0_14917" x1="305.749" y1="92.8286" x2="326.63" y2="145.538" gradientUnits="userSpaceOnUse">
<stop stop-color="white" stop-opacity="0.4"/>
<stop offset="0.4" stop-color="white" stop-opacity="0.01"/>
<stop offset="0.6" stop-color="white" stop-opacity="0.01"/>
<stop offset="1" stop-color="white" stop-opacity="0.1"/>
</linearGradient>
<linearGradient id="paint10_linear_0_14917" x1="358.045" y1="132.956" x2="378.926" y2="185.666" gradientUnits="userSpaceOnUse">
<stop stop-color="white" stop-opacity="0.4"/>
<stop offset="0.4" stop-color="white" stop-opacity="0.01"/>
<stop offset="0.6" stop-color="white" stop-opacity="0.01"/>
<stop offset="1" stop-color="white" stop-opacity="0.1"/>
</linearGradient>
<linearGradient id="paint11_linear_0_14917" x1="398.172" y1="185.25" x2="419.053" y2="237.96" gradientUnits="userSpaceOnUse">
<stop stop-color="white" stop-opacity="0.4"/>
<stop offset="0.4" stop-color="white" stop-opacity="0.01"/>
<stop offset="0.6" stop-color="white" stop-opacity="0.01"/>
<stop offset="1" stop-color="white" stop-opacity="0.1"/>
</linearGradient>
<clipPath id="clip0_0_14917">
<rect x="154" y="37" width="52" height="92" rx="26" fill="white"/>
</clipPath>
</defs>
</svg>
